%TF.GenerationSoftware,KiCad,Pcbnew,7.0.8-7.0.8~ubuntu20.04.1*%
%TF.CreationDate,2023-10-05T17:37:43+09:00*%
%TF.ProjectId,v0_2,76305f32-2e6b-4696-9361-645f70636258,rev?*%
%TF.SameCoordinates,Original*%
%TF.FileFunction,Legend,Top*%
%TF.FilePolarity,Positive*%
%FSLAX46Y46*%
G04 Gerber Fmt 4.6, Leading zero omitted, Abs format (unit mm)*
G04 Created by KiCad (PCBNEW 7.0.8-7.0.8~ubuntu20.04.1) date 2023-10-05 17:37:43*
%MOMM*%
%LPD*%
G01*
G04 APERTURE LIST*
%ADD10C,0.150000*%
%ADD11C,0.254000*%
%ADD12C,0.200000*%
%ADD13C,0.100000*%
%ADD14C,0.120000*%
G04 APERTURE END LIST*
D10*
X14238095Y-28854819D02*
X14238095Y-27854819D01*
X14238095Y-28331009D02*
X14809523Y-28331009D01*
X14809523Y-28854819D02*
X14809523Y-27854819D01*
X15714285Y-28188152D02*
X15714285Y-28854819D01*
X15476190Y-27807200D02*
X15238095Y-28521485D01*
X15238095Y-28521485D02*
X15857142Y-28521485D01*
D11*
X4879318Y26526667D02*
X5786461Y26526667D01*
X5786461Y26526667D02*
X5967889Y26466190D01*
X5967889Y26466190D02*
X6088842Y26345238D01*
X6088842Y26345238D02*
X6149318Y26163809D01*
X6149318Y26163809D02*
X6149318Y26042857D01*
X5000270Y27070952D02*
X4939794Y27131428D01*
X4939794Y27131428D02*
X4879318Y27252381D01*
X4879318Y27252381D02*
X4879318Y27554762D01*
X4879318Y27554762D02*
X4939794Y27675714D01*
X4939794Y27675714D02*
X5000270Y27736190D01*
X5000270Y27736190D02*
X5121222Y27796667D01*
X5121222Y27796667D02*
X5242175Y27796667D01*
X5242175Y27796667D02*
X5423603Y27736190D01*
X5423603Y27736190D02*
X6149318Y27010476D01*
X6149318Y27010476D02*
X6149318Y27796667D01*
D10*
X-5338094Y20975180D02*
X-5338094Y21975180D01*
X-5338094Y21975180D02*
X-5099999Y21975180D01*
X-5099999Y21975180D02*
X-4957142Y21927561D01*
X-4957142Y21927561D02*
X-4861904Y21832323D01*
X-4861904Y21832323D02*
X-4814285Y21737085D01*
X-4814285Y21737085D02*
X-4766666Y21546609D01*
X-4766666Y21546609D02*
X-4766666Y21403752D01*
X-4766666Y21403752D02*
X-4814285Y21213276D01*
X-4814285Y21213276D02*
X-4861904Y21118038D01*
X-4861904Y21118038D02*
X-4957142Y21022800D01*
X-4957142Y21022800D02*
X-5099999Y20975180D01*
X-5099999Y20975180D02*
X-5338094Y20975180D01*
X-4385713Y21879942D02*
X-4338094Y21927561D01*
X-4338094Y21927561D02*
X-4242856Y21975180D01*
X-4242856Y21975180D02*
X-4004761Y21975180D01*
X-4004761Y21975180D02*
X-3909523Y21927561D01*
X-3909523Y21927561D02*
X-3861904Y21879942D01*
X-3861904Y21879942D02*
X-3814285Y21784704D01*
X-3814285Y21784704D02*
X-3814285Y21689466D01*
X-3814285Y21689466D02*
X-3861904Y21546609D01*
X-3861904Y21546609D02*
X-4433332Y20975180D01*
X-4433332Y20975180D02*
X-3814285Y20975180D01*
D11*
X-7230443Y-729761D02*
X-6625681Y-729761D01*
X-7895681Y-1153094D02*
X-7230443Y-729761D01*
X-7230443Y-729761D02*
X-7895681Y-306427D01*
X-6625681Y782143D02*
X-6625681Y56428D01*
X-6625681Y419285D02*
X-7895681Y419285D01*
X-7895681Y419285D02*
X-7714253Y298333D01*
X-7714253Y298333D02*
X-7593300Y177381D01*
X-7593300Y177381D02*
X-7532824Y56428D01*
D10*
X-14741666Y-13624819D02*
X-15074999Y-13148628D01*
X-15313094Y-13624819D02*
X-15313094Y-12624819D01*
X-15313094Y-12624819D02*
X-14932142Y-12624819D01*
X-14932142Y-12624819D02*
X-14836904Y-12672438D01*
X-14836904Y-12672438D02*
X-14789285Y-12720057D01*
X-14789285Y-12720057D02*
X-14741666Y-12815295D01*
X-14741666Y-12815295D02*
X-14741666Y-12958152D01*
X-14741666Y-12958152D02*
X-14789285Y-13053390D01*
X-14789285Y-13053390D02*
X-14836904Y-13101009D01*
X-14836904Y-13101009D02*
X-14932142Y-13148628D01*
X-14932142Y-13148628D02*
X-15313094Y-13148628D01*
X-13884523Y-12958152D02*
X-13884523Y-13624819D01*
X-14122618Y-12577200D02*
X-14360713Y-13291485D01*
X-14360713Y-13291485D02*
X-13741666Y-13291485D01*
X-3627857Y8595180D02*
X-3961190Y9071371D01*
X-4199285Y8595180D02*
X-4199285Y9595180D01*
X-4199285Y9595180D02*
X-3818333Y9595180D01*
X-3818333Y9595180D02*
X-3723095Y9547561D01*
X-3723095Y9547561D02*
X-3675476Y9499942D01*
X-3675476Y9499942D02*
X-3627857Y9404704D01*
X-3627857Y9404704D02*
X-3627857Y9261847D01*
X-3627857Y9261847D02*
X-3675476Y9166609D01*
X-3675476Y9166609D02*
X-3723095Y9118990D01*
X-3723095Y9118990D02*
X-3818333Y9071371D01*
X-3818333Y9071371D02*
X-4199285Y9071371D01*
X-2675476Y8595180D02*
X-3246904Y8595180D01*
X-2961190Y8595180D02*
X-2961190Y9595180D01*
X-2961190Y9595180D02*
X-3056428Y9452323D01*
X-3056428Y9452323D02*
X-3151666Y9357085D01*
X-3151666Y9357085D02*
X-3246904Y9309466D01*
X-1818333Y9595180D02*
X-2008809Y9595180D01*
X-2008809Y9595180D02*
X-2104047Y9547561D01*
X-2104047Y9547561D02*
X-2151666Y9499942D01*
X-2151666Y9499942D02*
X-2246904Y9357085D01*
X-2246904Y9357085D02*
X-2294523Y9166609D01*
X-2294523Y9166609D02*
X-2294523Y8785657D01*
X-2294523Y8785657D02*
X-2246904Y8690419D01*
X-2246904Y8690419D02*
X-2199285Y8642800D01*
X-2199285Y8642800D02*
X-2104047Y8595180D01*
X-2104047Y8595180D02*
X-1913571Y8595180D01*
X-1913571Y8595180D02*
X-1818333Y8642800D01*
X-1818333Y8642800D02*
X-1770714Y8690419D01*
X-1770714Y8690419D02*
X-1723095Y8785657D01*
X-1723095Y8785657D02*
X-1723095Y9023752D01*
X-1723095Y9023752D02*
X-1770714Y9118990D01*
X-1770714Y9118990D02*
X-1818333Y9166609D01*
X-1818333Y9166609D02*
X-1913571Y9214228D01*
X-1913571Y9214228D02*
X-2104047Y9214228D01*
X-2104047Y9214228D02*
X-2199285Y9166609D01*
X-2199285Y9166609D02*
X-2246904Y9118990D01*
X-2246904Y9118990D02*
X-2294523Y9023752D01*
X1233333Y1370419D02*
X1185714Y1322800D01*
X1185714Y1322800D02*
X1042857Y1275180D01*
X1042857Y1275180D02*
X947619Y1275180D01*
X947619Y1275180D02*
X804762Y1322800D01*
X804762Y1322800D02*
X709524Y1418038D01*
X709524Y1418038D02*
X661905Y1513276D01*
X661905Y1513276D02*
X614286Y1703752D01*
X614286Y1703752D02*
X614286Y1846609D01*
X614286Y1846609D02*
X661905Y2037085D01*
X661905Y2037085D02*
X709524Y2132323D01*
X709524Y2132323D02*
X804762Y2227561D01*
X804762Y2227561D02*
X947619Y2275180D01*
X947619Y2275180D02*
X1042857Y2275180D01*
X1042857Y2275180D02*
X1185714Y2227561D01*
X1185714Y2227561D02*
X1233333Y2179942D01*
X2090476Y1941847D02*
X2090476Y1275180D01*
X1852381Y2322800D02*
X1614286Y1608514D01*
X1614286Y1608514D02*
X2233333Y1608514D01*
X-15661904Y34645180D02*
X-15661904Y35645180D01*
X-15661904Y35168990D02*
X-15090476Y35168990D01*
X-15090476Y34645180D02*
X-15090476Y35645180D01*
X-14090476Y34645180D02*
X-14661904Y34645180D01*
X-14376190Y34645180D02*
X-14376190Y35645180D01*
X-14376190Y35645180D02*
X-14471428Y35502323D01*
X-14471428Y35502323D02*
X-14566666Y35407085D01*
X-14566666Y35407085D02*
X-14661904Y35359466D01*
X10732142Y-14124819D02*
X10398809Y-13648628D01*
X10160714Y-14124819D02*
X10160714Y-13124819D01*
X10160714Y-13124819D02*
X10541666Y-13124819D01*
X10541666Y-13124819D02*
X10636904Y-13172438D01*
X10636904Y-13172438D02*
X10684523Y-13220057D01*
X10684523Y-13220057D02*
X10732142Y-13315295D01*
X10732142Y-13315295D02*
X10732142Y-13458152D01*
X10732142Y-13458152D02*
X10684523Y-13553390D01*
X10684523Y-13553390D02*
X10636904Y-13601009D01*
X10636904Y-13601009D02*
X10541666Y-13648628D01*
X10541666Y-13648628D02*
X10160714Y-13648628D01*
X11684523Y-14124819D02*
X11113095Y-14124819D01*
X11398809Y-14124819D02*
X11398809Y-13124819D01*
X11398809Y-13124819D02*
X11303571Y-13267676D01*
X11303571Y-13267676D02*
X11208333Y-13362914D01*
X11208333Y-13362914D02*
X11113095Y-13410533D01*
X12017857Y-13124819D02*
X12636904Y-13124819D01*
X12636904Y-13124819D02*
X12303571Y-13505771D01*
X12303571Y-13505771D02*
X12446428Y-13505771D01*
X12446428Y-13505771D02*
X12541666Y-13553390D01*
X12541666Y-13553390D02*
X12589285Y-13601009D01*
X12589285Y-13601009D02*
X12636904Y-13696247D01*
X12636904Y-13696247D02*
X12636904Y-13934342D01*
X12636904Y-13934342D02*
X12589285Y-14029580D01*
X12589285Y-14029580D02*
X12541666Y-14077200D01*
X12541666Y-14077200D02*
X12446428Y-14124819D01*
X12446428Y-14124819D02*
X12160714Y-14124819D01*
X12160714Y-14124819D02*
X12065476Y-14077200D01*
X12065476Y-14077200D02*
X12017857Y-14029580D01*
X11208333Y-15704819D02*
X10875000Y-15228628D01*
X10636905Y-15704819D02*
X10636905Y-14704819D01*
X10636905Y-14704819D02*
X11017857Y-14704819D01*
X11017857Y-14704819D02*
X11113095Y-14752438D01*
X11113095Y-14752438D02*
X11160714Y-14800057D01*
X11160714Y-14800057D02*
X11208333Y-14895295D01*
X11208333Y-14895295D02*
X11208333Y-15038152D01*
X11208333Y-15038152D02*
X11160714Y-15133390D01*
X11160714Y-15133390D02*
X11113095Y-15181009D01*
X11113095Y-15181009D02*
X11017857Y-15228628D01*
X11017857Y-15228628D02*
X10636905Y-15228628D01*
X11779762Y-15133390D02*
X11684524Y-15085771D01*
X11684524Y-15085771D02*
X11636905Y-15038152D01*
X11636905Y-15038152D02*
X11589286Y-14942914D01*
X11589286Y-14942914D02*
X11589286Y-14895295D01*
X11589286Y-14895295D02*
X11636905Y-14800057D01*
X11636905Y-14800057D02*
X11684524Y-14752438D01*
X11684524Y-14752438D02*
X11779762Y-14704819D01*
X11779762Y-14704819D02*
X11970238Y-14704819D01*
X11970238Y-14704819D02*
X12065476Y-14752438D01*
X12065476Y-14752438D02*
X12113095Y-14800057D01*
X12113095Y-14800057D02*
X12160714Y-14895295D01*
X12160714Y-14895295D02*
X12160714Y-14942914D01*
X12160714Y-14942914D02*
X12113095Y-15038152D01*
X12113095Y-15038152D02*
X12065476Y-15085771D01*
X12065476Y-15085771D02*
X11970238Y-15133390D01*
X11970238Y-15133390D02*
X11779762Y-15133390D01*
X11779762Y-15133390D02*
X11684524Y-15181009D01*
X11684524Y-15181009D02*
X11636905Y-15228628D01*
X11636905Y-15228628D02*
X11589286Y-15323866D01*
X11589286Y-15323866D02*
X11589286Y-15514342D01*
X11589286Y-15514342D02*
X11636905Y-15609580D01*
X11636905Y-15609580D02*
X11684524Y-15657200D01*
X11684524Y-15657200D02*
X11779762Y-15704819D01*
X11779762Y-15704819D02*
X11970238Y-15704819D01*
X11970238Y-15704819D02*
X12065476Y-15657200D01*
X12065476Y-15657200D02*
X12113095Y-15609580D01*
X12113095Y-15609580D02*
X12160714Y-15514342D01*
X12160714Y-15514342D02*
X12160714Y-15323866D01*
X12160714Y-15323866D02*
X12113095Y-15228628D01*
X12113095Y-15228628D02*
X12065476Y-15181009D01*
X12065476Y-15181009D02*
X11970238Y-15133390D01*
D11*
X-5170952Y-6595270D02*
X-5291904Y-6534794D01*
X-5291904Y-6534794D02*
X-5412857Y-6413842D01*
X-5412857Y-6413842D02*
X-5594285Y-6232413D01*
X-5594285Y-6232413D02*
X-5715238Y-6171937D01*
X-5715238Y-6171937D02*
X-5836190Y-6171937D01*
X-5775714Y-6474318D02*
X-5896666Y-6413842D01*
X-5896666Y-6413842D02*
X-6017619Y-6292889D01*
X-6017619Y-6292889D02*
X-6078095Y-6050984D01*
X-6078095Y-6050984D02*
X-6078095Y-5627651D01*
X-6078095Y-5627651D02*
X-6017619Y-5385746D01*
X-6017619Y-5385746D02*
X-5896666Y-5264794D01*
X-5896666Y-5264794D02*
X-5775714Y-5204318D01*
X-5775714Y-5204318D02*
X-5533809Y-5204318D01*
X-5533809Y-5204318D02*
X-5412857Y-5264794D01*
X-5412857Y-5264794D02*
X-5291904Y-5385746D01*
X-5291904Y-5385746D02*
X-5231428Y-5627651D01*
X-5231428Y-5627651D02*
X-5231428Y-6050984D01*
X-5231428Y-6050984D02*
X-5291904Y-6292889D01*
X-5291904Y-6292889D02*
X-5412857Y-6413842D01*
X-5412857Y-6413842D02*
X-5533809Y-6474318D01*
X-5533809Y-6474318D02*
X-5775714Y-6474318D01*
X-4808095Y-5204318D02*
X-4021904Y-5204318D01*
X-4021904Y-5204318D02*
X-4445238Y-5688127D01*
X-4445238Y-5688127D02*
X-4263809Y-5688127D01*
X-4263809Y-5688127D02*
X-4142857Y-5748603D01*
X-4142857Y-5748603D02*
X-4082381Y-5809080D01*
X-4082381Y-5809080D02*
X-4021904Y-5930032D01*
X-4021904Y-5930032D02*
X-4021904Y-6232413D01*
X-4021904Y-6232413D02*
X-4082381Y-6353365D01*
X-4082381Y-6353365D02*
X-4142857Y-6413842D01*
X-4142857Y-6413842D02*
X-4263809Y-6474318D01*
X-4263809Y-6474318D02*
X-4626666Y-6474318D01*
X-4626666Y-6474318D02*
X-4747619Y-6413842D01*
X-4747619Y-6413842D02*
X-4808095Y-6353365D01*
X-3779762Y9585681D02*
X-3779762Y10855681D01*
X-2449285Y9706634D02*
X-2509761Y9646158D01*
X-2509761Y9646158D02*
X-2691190Y9585681D01*
X-2691190Y9585681D02*
X-2812142Y9585681D01*
X-2812142Y9585681D02*
X-2993571Y9646158D01*
X-2993571Y9646158D02*
X-3114523Y9767110D01*
X-3114523Y9767110D02*
X-3175000Y9888062D01*
X-3175000Y9888062D02*
X-3235476Y10129967D01*
X-3235476Y10129967D02*
X-3235476Y10311396D01*
X-3235476Y10311396D02*
X-3175000Y10553300D01*
X-3175000Y10553300D02*
X-3114523Y10674253D01*
X-3114523Y10674253D02*
X-2993571Y10795205D01*
X-2993571Y10795205D02*
X-2812142Y10855681D01*
X-2812142Y10855681D02*
X-2691190Y10855681D01*
X-2691190Y10855681D02*
X-2509761Y10795205D01*
X-2509761Y10795205D02*
X-2449285Y10734729D01*
X-2025952Y10855681D02*
X-1239761Y10855681D01*
X-1239761Y10855681D02*
X-1663095Y10371872D01*
X-1663095Y10371872D02*
X-1481666Y10371872D01*
X-1481666Y10371872D02*
X-1360714Y10311396D01*
X-1360714Y10311396D02*
X-1300238Y10250919D01*
X-1300238Y10250919D02*
X-1239761Y10129967D01*
X-1239761Y10129967D02*
X-1239761Y9827586D01*
X-1239761Y9827586D02*
X-1300238Y9706634D01*
X-1300238Y9706634D02*
X-1360714Y9646158D01*
X-1360714Y9646158D02*
X-1481666Y9585681D01*
X-1481666Y9585681D02*
X-1844523Y9585681D01*
X-1844523Y9585681D02*
X-1965476Y9646158D01*
X-1965476Y9646158D02*
X-2025952Y9706634D01*
D10*
X-8775180Y-6041666D02*
X-9251371Y-6374999D01*
X-8775180Y-6613094D02*
X-9775180Y-6613094D01*
X-9775180Y-6613094D02*
X-9775180Y-6232142D01*
X-9775180Y-6232142D02*
X-9727561Y-6136904D01*
X-9727561Y-6136904D02*
X-9679942Y-6089285D01*
X-9679942Y-6089285D02*
X-9584704Y-6041666D01*
X-9584704Y-6041666D02*
X-9441847Y-6041666D01*
X-9441847Y-6041666D02*
X-9346609Y-6089285D01*
X-9346609Y-6089285D02*
X-9298990Y-6136904D01*
X-9298990Y-6136904D02*
X-9251371Y-6232142D01*
X-9251371Y-6232142D02*
X-9251371Y-6613094D01*
X-9679942Y-5660713D02*
X-9727561Y-5613094D01*
X-9727561Y-5613094D02*
X-9775180Y-5517856D01*
X-9775180Y-5517856D02*
X-9775180Y-5279761D01*
X-9775180Y-5279761D02*
X-9727561Y-5184523D01*
X-9727561Y-5184523D02*
X-9679942Y-5136904D01*
X-9679942Y-5136904D02*
X-9584704Y-5089285D01*
X-9584704Y-5089285D02*
X-9489466Y-5089285D01*
X-9489466Y-5089285D02*
X-9346609Y-5136904D01*
X-9346609Y-5136904D02*
X-8775180Y-5708332D01*
X-8775180Y-5708332D02*
X-8775180Y-5089285D01*
D11*
X3909047Y10734729D02*
X3788095Y10795205D01*
X3788095Y10795205D02*
X3667142Y10916158D01*
X3667142Y10916158D02*
X3485714Y11097586D01*
X3485714Y11097586D02*
X3364761Y11158062D01*
X3364761Y11158062D02*
X3243809Y11158062D01*
X3304285Y10855681D02*
X3183333Y10916158D01*
X3183333Y10916158D02*
X3062380Y11037110D01*
X3062380Y11037110D02*
X3001904Y11279015D01*
X3001904Y11279015D02*
X3001904Y11702348D01*
X3001904Y11702348D02*
X3062380Y11944253D01*
X3062380Y11944253D02*
X3183333Y12065205D01*
X3183333Y12065205D02*
X3304285Y12125681D01*
X3304285Y12125681D02*
X3546190Y12125681D01*
X3546190Y12125681D02*
X3667142Y12065205D01*
X3667142Y12065205D02*
X3788095Y11944253D01*
X3788095Y11944253D02*
X3848571Y11702348D01*
X3848571Y11702348D02*
X3848571Y11279015D01*
X3848571Y11279015D02*
X3788095Y11037110D01*
X3788095Y11037110D02*
X3667142Y10916158D01*
X3667142Y10916158D02*
X3546190Y10855681D01*
X3546190Y10855681D02*
X3304285Y10855681D01*
X4332380Y12004729D02*
X4392856Y12065205D01*
X4392856Y12065205D02*
X4513809Y12125681D01*
X4513809Y12125681D02*
X4816190Y12125681D01*
X4816190Y12125681D02*
X4937142Y12065205D01*
X4937142Y12065205D02*
X4997618Y12004729D01*
X4997618Y12004729D02*
X5058095Y11883777D01*
X5058095Y11883777D02*
X5058095Y11762824D01*
X5058095Y11762824D02*
X4997618Y11581396D01*
X4997618Y11581396D02*
X4271904Y10855681D01*
X4271904Y10855681D02*
X5058095Y10855681D01*
D10*
X-5830419Y-18721666D02*
X-5782800Y-18769285D01*
X-5782800Y-18769285D02*
X-5735180Y-18912142D01*
X-5735180Y-18912142D02*
X-5735180Y-19007380D01*
X-5735180Y-19007380D02*
X-5782800Y-19150237D01*
X-5782800Y-19150237D02*
X-5878038Y-19245475D01*
X-5878038Y-19245475D02*
X-5973276Y-19293094D01*
X-5973276Y-19293094D02*
X-6163752Y-19340713D01*
X-6163752Y-19340713D02*
X-6306609Y-19340713D01*
X-6306609Y-19340713D02*
X-6497085Y-19293094D01*
X-6497085Y-19293094D02*
X-6592323Y-19245475D01*
X-6592323Y-19245475D02*
X-6687561Y-19150237D01*
X-6687561Y-19150237D02*
X-6735180Y-19007380D01*
X-6735180Y-19007380D02*
X-6735180Y-18912142D01*
X-6735180Y-18912142D02*
X-6687561Y-18769285D01*
X-6687561Y-18769285D02*
X-6639942Y-18721666D01*
X-6735180Y-17816904D02*
X-6735180Y-18293094D01*
X-6735180Y-18293094D02*
X-6258990Y-18340713D01*
X-6258990Y-18340713D02*
X-6306609Y-18293094D01*
X-6306609Y-18293094D02*
X-6354228Y-18197856D01*
X-6354228Y-18197856D02*
X-6354228Y-17959761D01*
X-6354228Y-17959761D02*
X-6306609Y-17864523D01*
X-6306609Y-17864523D02*
X-6258990Y-17816904D01*
X-6258990Y-17816904D02*
X-6163752Y-17769285D01*
X-6163752Y-17769285D02*
X-5925657Y-17769285D01*
X-5925657Y-17769285D02*
X-5830419Y-17816904D01*
X-5830419Y-17816904D02*
X-5782800Y-17864523D01*
X-5782800Y-17864523D02*
X-5735180Y-17959761D01*
X-5735180Y-17959761D02*
X-5735180Y-18197856D01*
X-5735180Y-18197856D02*
X-5782800Y-18293094D01*
X-5782800Y-18293094D02*
X-5830419Y-18340713D01*
D11*
X-4777619Y-15814318D02*
X-4777619Y-16842413D01*
X-4777619Y-16842413D02*
X-4717142Y-16963365D01*
X-4717142Y-16963365D02*
X-4656666Y-17023842D01*
X-4656666Y-17023842D02*
X-4535714Y-17084318D01*
X-4535714Y-17084318D02*
X-4293809Y-17084318D01*
X-4293809Y-17084318D02*
X-4172857Y-17023842D01*
X-4172857Y-17023842D02*
X-4112380Y-16963365D01*
X-4112380Y-16963365D02*
X-4051904Y-16842413D01*
X-4051904Y-16842413D02*
X-4051904Y-15814318D01*
X-2781904Y-17084318D02*
X-3507619Y-17084318D01*
X-3144762Y-17084318D02*
X-3144762Y-15814318D01*
X-3144762Y-15814318D02*
X-3265714Y-15995746D01*
X-3265714Y-15995746D02*
X-3386666Y-16116699D01*
X-3386666Y-16116699D02*
X-3507619Y-16177175D01*
D10*
X-7011666Y12500419D02*
X-7059285Y12452800D01*
X-7059285Y12452800D02*
X-7202142Y12405180D01*
X-7202142Y12405180D02*
X-7297380Y12405180D01*
X-7297380Y12405180D02*
X-7440237Y12452800D01*
X-7440237Y12452800D02*
X-7535475Y12548038D01*
X-7535475Y12548038D02*
X-7583094Y12643276D01*
X-7583094Y12643276D02*
X-7630713Y12833752D01*
X-7630713Y12833752D02*
X-7630713Y12976609D01*
X-7630713Y12976609D02*
X-7583094Y13167085D01*
X-7583094Y13167085D02*
X-7535475Y13262323D01*
X-7535475Y13262323D02*
X-7440237Y13357561D01*
X-7440237Y13357561D02*
X-7297380Y13405180D01*
X-7297380Y13405180D02*
X-7202142Y13405180D01*
X-7202142Y13405180D02*
X-7059285Y13357561D01*
X-7059285Y13357561D02*
X-7011666Y13309942D01*
X-6059285Y12405180D02*
X-6630713Y12405180D01*
X-6344999Y12405180D02*
X-6344999Y13405180D01*
X-6344999Y13405180D02*
X-6440237Y13262323D01*
X-6440237Y13262323D02*
X-6535475Y13167085D01*
X-6535475Y13167085D02*
X-6630713Y13119466D01*
X-7011666Y7420419D02*
X-7059285Y7372800D01*
X-7059285Y7372800D02*
X-7202142Y7325180D01*
X-7202142Y7325180D02*
X-7297380Y7325180D01*
X-7297380Y7325180D02*
X-7440237Y7372800D01*
X-7440237Y7372800D02*
X-7535475Y7468038D01*
X-7535475Y7468038D02*
X-7583094Y7563276D01*
X-7583094Y7563276D02*
X-7630713Y7753752D01*
X-7630713Y7753752D02*
X-7630713Y7896609D01*
X-7630713Y7896609D02*
X-7583094Y8087085D01*
X-7583094Y8087085D02*
X-7535475Y8182323D01*
X-7535475Y8182323D02*
X-7440237Y8277561D01*
X-7440237Y8277561D02*
X-7297380Y8325180D01*
X-7297380Y8325180D02*
X-7202142Y8325180D01*
X-7202142Y8325180D02*
X-7059285Y8277561D01*
X-7059285Y8277561D02*
X-7011666Y8229942D01*
X-6678332Y8325180D02*
X-6059285Y8325180D01*
X-6059285Y8325180D02*
X-6392618Y7944228D01*
X-6392618Y7944228D02*
X-6249761Y7944228D01*
X-6249761Y7944228D02*
X-6154523Y7896609D01*
X-6154523Y7896609D02*
X-6106904Y7848990D01*
X-6106904Y7848990D02*
X-6059285Y7753752D01*
X-6059285Y7753752D02*
X-6059285Y7515657D01*
X-6059285Y7515657D02*
X-6106904Y7420419D01*
X-6106904Y7420419D02*
X-6154523Y7372800D01*
X-6154523Y7372800D02*
X-6249761Y7325180D01*
X-6249761Y7325180D02*
X-6535475Y7325180D01*
X-6535475Y7325180D02*
X-6630713Y7372800D01*
X-6630713Y7372800D02*
X-6678332Y7420419D01*
X14338095Y34845180D02*
X14338095Y35845180D01*
X14338095Y35368990D02*
X14909523Y35368990D01*
X14909523Y34845180D02*
X14909523Y35845180D01*
X15338095Y35749942D02*
X15385714Y35797561D01*
X15385714Y35797561D02*
X15480952Y35845180D01*
X15480952Y35845180D02*
X15719047Y35845180D01*
X15719047Y35845180D02*
X15814285Y35797561D01*
X15814285Y35797561D02*
X15861904Y35749942D01*
X15861904Y35749942D02*
X15909523Y35654704D01*
X15909523Y35654704D02*
X15909523Y35559466D01*
X15909523Y35559466D02*
X15861904Y35416609D01*
X15861904Y35416609D02*
X15290476Y34845180D01*
X15290476Y34845180D02*
X15909523Y34845180D01*
X6508333Y-21389580D02*
X6460714Y-21437200D01*
X6460714Y-21437200D02*
X6317857Y-21484819D01*
X6317857Y-21484819D02*
X6222619Y-21484819D01*
X6222619Y-21484819D02*
X6079762Y-21437200D01*
X6079762Y-21437200D02*
X5984524Y-21341961D01*
X5984524Y-21341961D02*
X5936905Y-21246723D01*
X5936905Y-21246723D02*
X5889286Y-21056247D01*
X5889286Y-21056247D02*
X5889286Y-20913390D01*
X5889286Y-20913390D02*
X5936905Y-20722914D01*
X5936905Y-20722914D02*
X5984524Y-20627676D01*
X5984524Y-20627676D02*
X6079762Y-20532438D01*
X6079762Y-20532438D02*
X6222619Y-20484819D01*
X6222619Y-20484819D02*
X6317857Y-20484819D01*
X6317857Y-20484819D02*
X6460714Y-20532438D01*
X6460714Y-20532438D02*
X6508333Y-20580057D01*
X7365476Y-20484819D02*
X7175000Y-20484819D01*
X7175000Y-20484819D02*
X7079762Y-20532438D01*
X7079762Y-20532438D02*
X7032143Y-20580057D01*
X7032143Y-20580057D02*
X6936905Y-20722914D01*
X6936905Y-20722914D02*
X6889286Y-20913390D01*
X6889286Y-20913390D02*
X6889286Y-21294342D01*
X6889286Y-21294342D02*
X6936905Y-21389580D01*
X6936905Y-21389580D02*
X6984524Y-21437200D01*
X6984524Y-21437200D02*
X7079762Y-21484819D01*
X7079762Y-21484819D02*
X7270238Y-21484819D01*
X7270238Y-21484819D02*
X7365476Y-21437200D01*
X7365476Y-21437200D02*
X7413095Y-21389580D01*
X7413095Y-21389580D02*
X7460714Y-21294342D01*
X7460714Y-21294342D02*
X7460714Y-21056247D01*
X7460714Y-21056247D02*
X7413095Y-20961009D01*
X7413095Y-20961009D02*
X7365476Y-20913390D01*
X7365476Y-20913390D02*
X7270238Y-20865771D01*
X7270238Y-20865771D02*
X7079762Y-20865771D01*
X7079762Y-20865771D02*
X6984524Y-20913390D01*
X6984524Y-20913390D02*
X6936905Y-20961009D01*
X6936905Y-20961009D02*
X6889286Y-21056247D01*
X-4517857Y32075180D02*
X-4851190Y32551371D01*
X-5089285Y32075180D02*
X-5089285Y33075180D01*
X-5089285Y33075180D02*
X-4708333Y33075180D01*
X-4708333Y33075180D02*
X-4613095Y33027561D01*
X-4613095Y33027561D02*
X-4565476Y32979942D01*
X-4565476Y32979942D02*
X-4517857Y32884704D01*
X-4517857Y32884704D02*
X-4517857Y32741847D01*
X-4517857Y32741847D02*
X-4565476Y32646609D01*
X-4565476Y32646609D02*
X-4613095Y32598990D01*
X-4613095Y32598990D02*
X-4708333Y32551371D01*
X-4708333Y32551371D02*
X-5089285Y32551371D01*
X-3565476Y32075180D02*
X-4136904Y32075180D01*
X-3851190Y32075180D02*
X-3851190Y33075180D01*
X-3851190Y33075180D02*
X-3946428Y32932323D01*
X-3946428Y32932323D02*
X-4041666Y32837085D01*
X-4041666Y32837085D02*
X-4136904Y32789466D01*
X-3232142Y33075180D02*
X-2565476Y33075180D01*
X-2565476Y33075180D02*
X-2994047Y32075180D01*
X84819Y-21942857D02*
X-391371Y-22276190D01*
X84819Y-22514285D02*
X-915180Y-22514285D01*
X-915180Y-22514285D02*
X-915180Y-22133333D01*
X-915180Y-22133333D02*
X-867561Y-22038095D01*
X-867561Y-22038095D02*
X-819942Y-21990476D01*
X-819942Y-21990476D02*
X-724704Y-21942857D01*
X-724704Y-21942857D02*
X-581847Y-21942857D01*
X-581847Y-21942857D02*
X-486609Y-21990476D01*
X-486609Y-21990476D02*
X-438990Y-22038095D01*
X-438990Y-22038095D02*
X-391371Y-22133333D01*
X-391371Y-22133333D02*
X-391371Y-22514285D01*
X84819Y-20990476D02*
X84819Y-21561904D01*
X84819Y-21276190D02*
X-915180Y-21276190D01*
X-915180Y-21276190D02*
X-772323Y-21371428D01*
X-772323Y-21371428D02*
X-677085Y-21466666D01*
X-677085Y-21466666D02*
X-629466Y-21561904D01*
X-486609Y-20419047D02*
X-534228Y-20514285D01*
X-534228Y-20514285D02*
X-581847Y-20561904D01*
X-581847Y-20561904D02*
X-677085Y-20609523D01*
X-677085Y-20609523D02*
X-724704Y-20609523D01*
X-724704Y-20609523D02*
X-819942Y-20561904D01*
X-819942Y-20561904D02*
X-867561Y-20514285D01*
X-867561Y-20514285D02*
X-915180Y-20419047D01*
X-915180Y-20419047D02*
X-915180Y-20228571D01*
X-915180Y-20228571D02*
X-867561Y-20133333D01*
X-867561Y-20133333D02*
X-819942Y-20085714D01*
X-819942Y-20085714D02*
X-724704Y-20038095D01*
X-724704Y-20038095D02*
X-677085Y-20038095D01*
X-677085Y-20038095D02*
X-581847Y-20085714D01*
X-581847Y-20085714D02*
X-534228Y-20133333D01*
X-534228Y-20133333D02*
X-486609Y-20228571D01*
X-486609Y-20228571D02*
X-486609Y-20419047D01*
X-486609Y-20419047D02*
X-438990Y-20514285D01*
X-438990Y-20514285D02*
X-391371Y-20561904D01*
X-391371Y-20561904D02*
X-296133Y-20609523D01*
X-296133Y-20609523D02*
X-105657Y-20609523D01*
X-105657Y-20609523D02*
X-10419Y-20561904D01*
X-10419Y-20561904D02*
X37200Y-20514285D01*
X37200Y-20514285D02*
X84819Y-20419047D01*
X84819Y-20419047D02*
X84819Y-20228571D01*
X84819Y-20228571D02*
X37200Y-20133333D01*
X37200Y-20133333D02*
X-10419Y-20085714D01*
X-10419Y-20085714D02*
X-105657Y-20038095D01*
X-105657Y-20038095D02*
X-296133Y-20038095D01*
X-296133Y-20038095D02*
X-391371Y-20085714D01*
X-391371Y-20085714D02*
X-438990Y-20133333D01*
X-438990Y-20133333D02*
X-486609Y-20228571D01*
X17054819Y-17458333D02*
X17769104Y-17458333D01*
X17769104Y-17458333D02*
X17911961Y-17505952D01*
X17911961Y-17505952D02*
X18007200Y-17601190D01*
X18007200Y-17601190D02*
X18054819Y-17744047D01*
X18054819Y-17744047D02*
X18054819Y-17839285D01*
X18054819Y-16982142D02*
X17054819Y-16982142D01*
X17054819Y-16982142D02*
X17054819Y-16601190D01*
X17054819Y-16601190D02*
X17102438Y-16505952D01*
X17102438Y-16505952D02*
X17150057Y-16458333D01*
X17150057Y-16458333D02*
X17245295Y-16410714D01*
X17245295Y-16410714D02*
X17388152Y-16410714D01*
X17388152Y-16410714D02*
X17483390Y-16458333D01*
X17483390Y-16458333D02*
X17531009Y-16505952D01*
X17531009Y-16505952D02*
X17578628Y-16601190D01*
X17578628Y-16601190D02*
X17578628Y-16982142D01*
X18054819Y-15458333D02*
X18054819Y-16029761D01*
X18054819Y-15744047D02*
X17054819Y-15744047D01*
X17054819Y-15744047D02*
X17197676Y-15839285D01*
X17197676Y-15839285D02*
X17292914Y-15934523D01*
X17292914Y-15934523D02*
X17340533Y-16029761D01*
D11*
X99047Y14544729D02*
X-21904Y14605205D01*
X-21904Y14605205D02*
X-142857Y14726158D01*
X-142857Y14726158D02*
X-324285Y14907586D01*
X-324285Y14907586D02*
X-445238Y14968062D01*
X-445238Y14968062D02*
X-566190Y14968062D01*
X-505714Y14665681D02*
X-626666Y14726158D01*
X-626666Y14726158D02*
X-747619Y14847110D01*
X-747619Y14847110D02*
X-808095Y15089015D01*
X-808095Y15089015D02*
X-808095Y15512348D01*
X-808095Y15512348D02*
X-747619Y15754253D01*
X-747619Y15754253D02*
X-626666Y15875205D01*
X-626666Y15875205D02*
X-505714Y15935681D01*
X-505714Y15935681D02*
X-263809Y15935681D01*
X-263809Y15935681D02*
X-142857Y15875205D01*
X-142857Y15875205D02*
X-21904Y15754253D01*
X-21904Y15754253D02*
X38571Y15512348D01*
X38571Y15512348D02*
X38571Y15089015D01*
X38571Y15089015D02*
X-21904Y14847110D01*
X-21904Y14847110D02*
X-142857Y14726158D01*
X-142857Y14726158D02*
X-263809Y14665681D01*
X-263809Y14665681D02*
X-505714Y14665681D01*
X1127142Y15512348D02*
X1127142Y14665681D01*
X824761Y15996158D02*
X522380Y15089015D01*
X522380Y15089015D02*
X1308571Y15089015D01*
D10*
X-5335594Y25105180D02*
X-5335594Y26105180D01*
X-5335594Y26105180D02*
X-5097499Y26105180D01*
X-5097499Y26105180D02*
X-4954642Y26057561D01*
X-4954642Y26057561D02*
X-4859404Y25962323D01*
X-4859404Y25962323D02*
X-4811785Y25867085D01*
X-4811785Y25867085D02*
X-4764166Y25676609D01*
X-4764166Y25676609D02*
X-4764166Y25533752D01*
X-4764166Y25533752D02*
X-4811785Y25343276D01*
X-4811785Y25343276D02*
X-4859404Y25248038D01*
X-4859404Y25248038D02*
X-4954642Y25152800D01*
X-4954642Y25152800D02*
X-5097499Y25105180D01*
X-5097499Y25105180D02*
X-5335594Y25105180D01*
X-3811785Y25105180D02*
X-4383213Y25105180D01*
X-4097499Y25105180D02*
X-4097499Y26105180D01*
X-4097499Y26105180D02*
X-4192737Y25962323D01*
X-4192737Y25962323D02*
X-4287975Y25867085D01*
X-4287975Y25867085D02*
X-4383213Y25819466D01*
X10732142Y-17224819D02*
X10398809Y-16748628D01*
X10160714Y-17224819D02*
X10160714Y-16224819D01*
X10160714Y-16224819D02*
X10541666Y-16224819D01*
X10541666Y-16224819D02*
X10636904Y-16272438D01*
X10636904Y-16272438D02*
X10684523Y-16320057D01*
X10684523Y-16320057D02*
X10732142Y-16415295D01*
X10732142Y-16415295D02*
X10732142Y-16558152D01*
X10732142Y-16558152D02*
X10684523Y-16653390D01*
X10684523Y-16653390D02*
X10636904Y-16701009D01*
X10636904Y-16701009D02*
X10541666Y-16748628D01*
X10541666Y-16748628D02*
X10160714Y-16748628D01*
X11684523Y-17224819D02*
X11113095Y-17224819D01*
X11398809Y-17224819D02*
X11398809Y-16224819D01*
X11398809Y-16224819D02*
X11303571Y-16367676D01*
X11303571Y-16367676D02*
X11208333Y-16462914D01*
X11208333Y-16462914D02*
X11113095Y-16510533D01*
X12541666Y-16558152D02*
X12541666Y-17224819D01*
X12303571Y-16177200D02*
X12065476Y-16891485D01*
X12065476Y-16891485D02*
X12684523Y-16891485D01*
X-15661904Y-29154819D02*
X-15661904Y-28154819D01*
X-15661904Y-28631009D02*
X-15090476Y-28631009D01*
X-15090476Y-29154819D02*
X-15090476Y-28154819D01*
X-14709523Y-28154819D02*
X-14090476Y-28154819D01*
X-14090476Y-28154819D02*
X-14423809Y-28535771D01*
X-14423809Y-28535771D02*
X-14280952Y-28535771D01*
X-14280952Y-28535771D02*
X-14185714Y-28583390D01*
X-14185714Y-28583390D02*
X-14138095Y-28631009D01*
X-14138095Y-28631009D02*
X-14090476Y-28726247D01*
X-14090476Y-28726247D02*
X-14090476Y-28964342D01*
X-14090476Y-28964342D02*
X-14138095Y-29059580D01*
X-14138095Y-29059580D02*
X-14185714Y-29107200D01*
X-14185714Y-29107200D02*
X-14280952Y-29154819D01*
X-14280952Y-29154819D02*
X-14566666Y-29154819D01*
X-14566666Y-29154819D02*
X-14661904Y-29107200D01*
X-14661904Y-29107200D02*
X-14709523Y-29059580D01*
X-13015180Y-17691666D02*
X-13491371Y-18024999D01*
X-13015180Y-18263094D02*
X-14015180Y-18263094D01*
X-14015180Y-18263094D02*
X-14015180Y-17882142D01*
X-14015180Y-17882142D02*
X-13967561Y-17786904D01*
X-13967561Y-17786904D02*
X-13919942Y-17739285D01*
X-13919942Y-17739285D02*
X-13824704Y-17691666D01*
X-13824704Y-17691666D02*
X-13681847Y-17691666D01*
X-13681847Y-17691666D02*
X-13586609Y-17739285D01*
X-13586609Y-17739285D02*
X-13538990Y-17786904D01*
X-13538990Y-17786904D02*
X-13491371Y-17882142D01*
X-13491371Y-17882142D02*
X-13491371Y-18263094D01*
X-14015180Y-16834523D02*
X-14015180Y-17024999D01*
X-14015180Y-17024999D02*
X-13967561Y-17120237D01*
X-13967561Y-17120237D02*
X-13919942Y-17167856D01*
X-13919942Y-17167856D02*
X-13777085Y-17263094D01*
X-13777085Y-17263094D02*
X-13586609Y-17310713D01*
X-13586609Y-17310713D02*
X-13205657Y-17310713D01*
X-13205657Y-17310713D02*
X-13110419Y-17263094D01*
X-13110419Y-17263094D02*
X-13062800Y-17215475D01*
X-13062800Y-17215475D02*
X-13015180Y-17120237D01*
X-13015180Y-17120237D02*
X-13015180Y-16929761D01*
X-13015180Y-16929761D02*
X-13062800Y-16834523D01*
X-13062800Y-16834523D02*
X-13110419Y-16786904D01*
X-13110419Y-16786904D02*
X-13205657Y-16739285D01*
X-13205657Y-16739285D02*
X-13443752Y-16739285D01*
X-13443752Y-16739285D02*
X-13538990Y-16786904D01*
X-13538990Y-16786904D02*
X-13586609Y-16834523D01*
X-13586609Y-16834523D02*
X-13634228Y-16929761D01*
X-13634228Y-16929761D02*
X-13634228Y-17120237D01*
X-13634228Y-17120237D02*
X-13586609Y-17215475D01*
X-13586609Y-17215475D02*
X-13538990Y-17263094D01*
X-13538990Y-17263094D02*
X-13443752Y-17310713D01*
D11*
X-13456158Y15292380D02*
X-13395681Y15473809D01*
X-13395681Y15473809D02*
X-13395681Y15776190D01*
X-13395681Y15776190D02*
X-13456158Y15897142D01*
X-13456158Y15897142D02*
X-13516634Y15957618D01*
X-13516634Y15957618D02*
X-13637586Y16018095D01*
X-13637586Y16018095D02*
X-13758538Y16018095D01*
X-13758538Y16018095D02*
X-13879491Y15957618D01*
X-13879491Y15957618D02*
X-13939967Y15897142D01*
X-13939967Y15897142D02*
X-14000443Y15776190D01*
X-14000443Y15776190D02*
X-14060919Y15534285D01*
X-14060919Y15534285D02*
X-14121396Y15413333D01*
X-14121396Y15413333D02*
X-14181872Y15352856D01*
X-14181872Y15352856D02*
X-14302824Y15292380D01*
X-14302824Y15292380D02*
X-14423777Y15292380D01*
X-14423777Y15292380D02*
X-14544729Y15352856D01*
X-14544729Y15352856D02*
X-14605205Y15413333D01*
X-14605205Y15413333D02*
X-14665681Y15534285D01*
X-14665681Y15534285D02*
X-14665681Y15836666D01*
X-14665681Y15836666D02*
X-14605205Y16018095D01*
X-14544729Y16501904D02*
X-14605205Y16562380D01*
X-14605205Y16562380D02*
X-14665681Y16683333D01*
X-14665681Y16683333D02*
X-14665681Y16985714D01*
X-14665681Y16985714D02*
X-14605205Y17106666D01*
X-14605205Y17106666D02*
X-14544729Y17167142D01*
X-14544729Y17167142D02*
X-14423777Y17227619D01*
X-14423777Y17227619D02*
X-14302824Y17227619D01*
X-14302824Y17227619D02*
X-14121396Y17167142D01*
X-14121396Y17167142D02*
X-13395681Y16441428D01*
X-13395681Y16441428D02*
X-13395681Y17227619D01*
D10*
X-4041666Y33975180D02*
X-4374999Y34451371D01*
X-4613094Y33975180D02*
X-4613094Y34975180D01*
X-4613094Y34975180D02*
X-4232142Y34975180D01*
X-4232142Y34975180D02*
X-4136904Y34927561D01*
X-4136904Y34927561D02*
X-4089285Y34879942D01*
X-4089285Y34879942D02*
X-4041666Y34784704D01*
X-4041666Y34784704D02*
X-4041666Y34641847D01*
X-4041666Y34641847D02*
X-4089285Y34546609D01*
X-4089285Y34546609D02*
X-4136904Y34498990D01*
X-4136904Y34498990D02*
X-4232142Y34451371D01*
X-4232142Y34451371D02*
X-4613094Y34451371D01*
X-3708332Y34975180D02*
X-3041666Y34975180D01*
X-3041666Y34975180D02*
X-3470237Y33975180D01*
X6324819Y15808333D02*
X5848628Y15475000D01*
X6324819Y15236905D02*
X5324819Y15236905D01*
X5324819Y15236905D02*
X5324819Y15617857D01*
X5324819Y15617857D02*
X5372438Y15713095D01*
X5372438Y15713095D02*
X5420057Y15760714D01*
X5420057Y15760714D02*
X5515295Y15808333D01*
X5515295Y15808333D02*
X5658152Y15808333D01*
X5658152Y15808333D02*
X5753390Y15760714D01*
X5753390Y15760714D02*
X5801009Y15713095D01*
X5801009Y15713095D02*
X5848628Y15617857D01*
X5848628Y15617857D02*
X5848628Y15236905D01*
X6324819Y16284524D02*
X6324819Y16475000D01*
X6324819Y16475000D02*
X6277200Y16570238D01*
X6277200Y16570238D02*
X6229580Y16617857D01*
X6229580Y16617857D02*
X6086723Y16713095D01*
X6086723Y16713095D02*
X5896247Y16760714D01*
X5896247Y16760714D02*
X5515295Y16760714D01*
X5515295Y16760714D02*
X5420057Y16713095D01*
X5420057Y16713095D02*
X5372438Y16665476D01*
X5372438Y16665476D02*
X5324819Y16570238D01*
X5324819Y16570238D02*
X5324819Y16379762D01*
X5324819Y16379762D02*
X5372438Y16284524D01*
X5372438Y16284524D02*
X5420057Y16236905D01*
X5420057Y16236905D02*
X5515295Y16189286D01*
X5515295Y16189286D02*
X5753390Y16189286D01*
X5753390Y16189286D02*
X5848628Y16236905D01*
X5848628Y16236905D02*
X5896247Y16284524D01*
X5896247Y16284524D02*
X5943866Y16379762D01*
X5943866Y16379762D02*
X5943866Y16570238D01*
X5943866Y16570238D02*
X5896247Y16665476D01*
X5896247Y16665476D02*
X5848628Y16713095D01*
X5848628Y16713095D02*
X5753390Y16760714D01*
X-15875180Y-11141666D02*
X-16351371Y-11474999D01*
X-15875180Y-11713094D02*
X-16875180Y-11713094D01*
X-16875180Y-11713094D02*
X-16875180Y-11332142D01*
X-16875180Y-11332142D02*
X-16827561Y-11236904D01*
X-16827561Y-11236904D02*
X-16779942Y-11189285D01*
X-16779942Y-11189285D02*
X-16684704Y-11141666D01*
X-16684704Y-11141666D02*
X-16541847Y-11141666D01*
X-16541847Y-11141666D02*
X-16446609Y-11189285D01*
X-16446609Y-11189285D02*
X-16398990Y-11236904D01*
X-16398990Y-11236904D02*
X-16351371Y-11332142D01*
X-16351371Y-11332142D02*
X-16351371Y-11713094D01*
X-16875180Y-10808332D02*
X-16875180Y-10189285D01*
X-16875180Y-10189285D02*
X-16494228Y-10522618D01*
X-16494228Y-10522618D02*
X-16494228Y-10379761D01*
X-16494228Y-10379761D02*
X-16446609Y-10284523D01*
X-16446609Y-10284523D02*
X-16398990Y-10236904D01*
X-16398990Y-10236904D02*
X-16303752Y-10189285D01*
X-16303752Y-10189285D02*
X-16065657Y-10189285D01*
X-16065657Y-10189285D02*
X-15970419Y-10236904D01*
X-15970419Y-10236904D02*
X-15922800Y-10284523D01*
X-15922800Y-10284523D02*
X-15875180Y-10379761D01*
X-15875180Y-10379761D02*
X-15875180Y-10665475D01*
X-15875180Y-10665475D02*
X-15922800Y-10760713D01*
X-15922800Y-10760713D02*
X-15970419Y-10808332D01*
X14906666Y17480180D02*
X14906666Y16765895D01*
X14906666Y16765895D02*
X14859047Y16623038D01*
X14859047Y16623038D02*
X14763809Y16527800D01*
X14763809Y16527800D02*
X14620952Y16480180D01*
X14620952Y16480180D02*
X14525714Y16480180D01*
X15287619Y17480180D02*
X15906666Y17480180D01*
X15906666Y17480180D02*
X15573333Y17099228D01*
X15573333Y17099228D02*
X15716190Y17099228D01*
X15716190Y17099228D02*
X15811428Y17051609D01*
X15811428Y17051609D02*
X15859047Y17003990D01*
X15859047Y17003990D02*
X15906666Y16908752D01*
X15906666Y16908752D02*
X15906666Y16670657D01*
X15906666Y16670657D02*
X15859047Y16575419D01*
X15859047Y16575419D02*
X15811428Y16527800D01*
X15811428Y16527800D02*
X15716190Y16480180D01*
X15716190Y16480180D02*
X15430476Y16480180D01*
X15430476Y16480180D02*
X15335238Y16527800D01*
X15335238Y16527800D02*
X15287619Y16575419D01*
X5408333Y8775180D02*
X5075000Y9251371D01*
X4836905Y8775180D02*
X4836905Y9775180D01*
X4836905Y9775180D02*
X5217857Y9775180D01*
X5217857Y9775180D02*
X5313095Y9727561D01*
X5313095Y9727561D02*
X5360714Y9679942D01*
X5360714Y9679942D02*
X5408333Y9584704D01*
X5408333Y9584704D02*
X5408333Y9441847D01*
X5408333Y9441847D02*
X5360714Y9346609D01*
X5360714Y9346609D02*
X5313095Y9298990D01*
X5313095Y9298990D02*
X5217857Y9251371D01*
X5217857Y9251371D02*
X4836905Y9251371D01*
X6360714Y8775180D02*
X5789286Y8775180D01*
X6075000Y8775180D02*
X6075000Y9775180D01*
X6075000Y9775180D02*
X5979762Y9632323D01*
X5979762Y9632323D02*
X5884524Y9537085D01*
X5884524Y9537085D02*
X5789286Y9489466D01*
X-13991666Y-23984819D02*
X-14324999Y-23508628D01*
X-14563094Y-23984819D02*
X-14563094Y-22984819D01*
X-14563094Y-22984819D02*
X-14182142Y-22984819D01*
X-14182142Y-22984819D02*
X-14086904Y-23032438D01*
X-14086904Y-23032438D02*
X-14039285Y-23080057D01*
X-14039285Y-23080057D02*
X-13991666Y-23175295D01*
X-13991666Y-23175295D02*
X-13991666Y-23318152D01*
X-13991666Y-23318152D02*
X-14039285Y-23413390D01*
X-14039285Y-23413390D02*
X-14086904Y-23461009D01*
X-14086904Y-23461009D02*
X-14182142Y-23508628D01*
X-14182142Y-23508628D02*
X-14563094Y-23508628D01*
X-13086904Y-22984819D02*
X-13563094Y-22984819D01*
X-13563094Y-22984819D02*
X-13610713Y-23461009D01*
X-13610713Y-23461009D02*
X-13563094Y-23413390D01*
X-13563094Y-23413390D02*
X-13467856Y-23365771D01*
X-13467856Y-23365771D02*
X-13229761Y-23365771D01*
X-13229761Y-23365771D02*
X-13134523Y-23413390D01*
X-13134523Y-23413390D02*
X-13086904Y-23461009D01*
X-13086904Y-23461009D02*
X-13039285Y-23556247D01*
X-13039285Y-23556247D02*
X-13039285Y-23794342D01*
X-13039285Y-23794342D02*
X-13086904Y-23889580D01*
X-13086904Y-23889580D02*
X-13134523Y-23937200D01*
X-13134523Y-23937200D02*
X-13229761Y-23984819D01*
X-13229761Y-23984819D02*
X-13467856Y-23984819D01*
X-13467856Y-23984819D02*
X-13563094Y-23937200D01*
X-13563094Y-23937200D02*
X-13610713Y-23889580D01*
X2257142Y-16224819D02*
X1923809Y-15748628D01*
X1685714Y-16224819D02*
X1685714Y-15224819D01*
X1685714Y-15224819D02*
X2066666Y-15224819D01*
X2066666Y-15224819D02*
X2161904Y-15272438D01*
X2161904Y-15272438D02*
X2209523Y-15320057D01*
X2209523Y-15320057D02*
X2257142Y-15415295D01*
X2257142Y-15415295D02*
X2257142Y-15558152D01*
X2257142Y-15558152D02*
X2209523Y-15653390D01*
X2209523Y-15653390D02*
X2161904Y-15701009D01*
X2161904Y-15701009D02*
X2066666Y-15748628D01*
X2066666Y-15748628D02*
X1685714Y-15748628D01*
X2638095Y-15320057D02*
X2685714Y-15272438D01*
X2685714Y-15272438D02*
X2780952Y-15224819D01*
X2780952Y-15224819D02*
X3019047Y-15224819D01*
X3019047Y-15224819D02*
X3114285Y-15272438D01*
X3114285Y-15272438D02*
X3161904Y-15320057D01*
X3161904Y-15320057D02*
X3209523Y-15415295D01*
X3209523Y-15415295D02*
X3209523Y-15510533D01*
X3209523Y-15510533D02*
X3161904Y-15653390D01*
X3161904Y-15653390D02*
X2590476Y-16224819D01*
X2590476Y-16224819D02*
X3209523Y-16224819D01*
X3828571Y-15224819D02*
X3923809Y-15224819D01*
X3923809Y-15224819D02*
X4019047Y-15272438D01*
X4019047Y-15272438D02*
X4066666Y-15320057D01*
X4066666Y-15320057D02*
X4114285Y-15415295D01*
X4114285Y-15415295D02*
X4161904Y-15605771D01*
X4161904Y-15605771D02*
X4161904Y-15843866D01*
X4161904Y-15843866D02*
X4114285Y-16034342D01*
X4114285Y-16034342D02*
X4066666Y-16129580D01*
X4066666Y-16129580D02*
X4019047Y-16177200D01*
X4019047Y-16177200D02*
X3923809Y-16224819D01*
X3923809Y-16224819D02*
X3828571Y-16224819D01*
X3828571Y-16224819D02*
X3733333Y-16177200D01*
X3733333Y-16177200D02*
X3685714Y-16129580D01*
X3685714Y-16129580D02*
X3638095Y-16034342D01*
X3638095Y-16034342D02*
X3590476Y-15843866D01*
X3590476Y-15843866D02*
X3590476Y-15605771D01*
X3590476Y-15605771D02*
X3638095Y-15415295D01*
X3638095Y-15415295D02*
X3685714Y-15320057D01*
X3685714Y-15320057D02*
X3733333Y-15272438D01*
X3733333Y-15272438D02*
X3828571Y-15224819D01*
X-8175180Y-15242857D02*
X-8651371Y-15576190D01*
X-8175180Y-15814285D02*
X-9175180Y-15814285D01*
X-9175180Y-15814285D02*
X-9175180Y-15433333D01*
X-9175180Y-15433333D02*
X-9127561Y-15338095D01*
X-9127561Y-15338095D02*
X-9079942Y-15290476D01*
X-9079942Y-15290476D02*
X-8984704Y-15242857D01*
X-8984704Y-15242857D02*
X-8841847Y-15242857D01*
X-8841847Y-15242857D02*
X-8746609Y-15290476D01*
X-8746609Y-15290476D02*
X-8698990Y-15338095D01*
X-8698990Y-15338095D02*
X-8651371Y-15433333D01*
X-8651371Y-15433333D02*
X-8651371Y-15814285D01*
X-8175180Y-14290476D02*
X-8175180Y-14861904D01*
X-8175180Y-14576190D02*
X-9175180Y-14576190D01*
X-9175180Y-14576190D02*
X-9032323Y-14671428D01*
X-9032323Y-14671428D02*
X-8937085Y-14766666D01*
X-8937085Y-14766666D02*
X-8889466Y-14861904D01*
X-9079942Y-13909523D02*
X-9127561Y-13861904D01*
X-9127561Y-13861904D02*
X-9175180Y-13766666D01*
X-9175180Y-13766666D02*
X-9175180Y-13528571D01*
X-9175180Y-13528571D02*
X-9127561Y-13433333D01*
X-9127561Y-13433333D02*
X-9079942Y-13385714D01*
X-9079942Y-13385714D02*
X-8984704Y-13338095D01*
X-8984704Y-13338095D02*
X-8889466Y-13338095D01*
X-8889466Y-13338095D02*
X-8746609Y-13385714D01*
X-8746609Y-13385714D02*
X-8175180Y-13957142D01*
X-8175180Y-13957142D02*
X-8175180Y-13338095D01*
X10611905Y-7504819D02*
X10611905Y-6504819D01*
X10611905Y-6504819D02*
X10850000Y-6504819D01*
X10850000Y-6504819D02*
X10992857Y-6552438D01*
X10992857Y-6552438D02*
X11088095Y-6647676D01*
X11088095Y-6647676D02*
X11135714Y-6742914D01*
X11135714Y-6742914D02*
X11183333Y-6933390D01*
X11183333Y-6933390D02*
X11183333Y-7076247D01*
X11183333Y-7076247D02*
X11135714Y-7266723D01*
X11135714Y-7266723D02*
X11088095Y-7361961D01*
X11088095Y-7361961D02*
X10992857Y-7457200D01*
X10992857Y-7457200D02*
X10850000Y-7504819D01*
X10850000Y-7504819D02*
X10611905Y-7504819D01*
X11516667Y-6504819D02*
X12135714Y-6504819D01*
X12135714Y-6504819D02*
X11802381Y-6885771D01*
X11802381Y-6885771D02*
X11945238Y-6885771D01*
X11945238Y-6885771D02*
X12040476Y-6933390D01*
X12040476Y-6933390D02*
X12088095Y-6981009D01*
X12088095Y-6981009D02*
X12135714Y-7076247D01*
X12135714Y-7076247D02*
X12135714Y-7314342D01*
X12135714Y-7314342D02*
X12088095Y-7409580D01*
X12088095Y-7409580D02*
X12040476Y-7457200D01*
X12040476Y-7457200D02*
X11945238Y-7504819D01*
X11945238Y-7504819D02*
X11659524Y-7504819D01*
X11659524Y-7504819D02*
X11564286Y-7457200D01*
X11564286Y-7457200D02*
X11516667Y-7409580D01*
X-3306904Y1255180D02*
X-3306904Y445657D01*
X-3306904Y445657D02*
X-3259285Y350419D01*
X-3259285Y350419D02*
X-3211666Y302800D01*
X-3211666Y302800D02*
X-3116428Y255180D01*
X-3116428Y255180D02*
X-2925952Y255180D01*
X-2925952Y255180D02*
X-2830714Y302800D01*
X-2830714Y302800D02*
X-2783095Y350419D01*
X-2783095Y350419D02*
X-2735476Y445657D01*
X-2735476Y445657D02*
X-2735476Y1255180D01*
X-2306904Y1159942D02*
X-2259285Y1207561D01*
X-2259285Y1207561D02*
X-2164047Y1255180D01*
X-2164047Y1255180D02*
X-1925952Y1255180D01*
X-1925952Y1255180D02*
X-1830714Y1207561D01*
X-1830714Y1207561D02*
X-1783095Y1159942D01*
X-1783095Y1159942D02*
X-1735476Y1064704D01*
X-1735476Y1064704D02*
X-1735476Y969466D01*
X-1735476Y969466D02*
X-1783095Y826609D01*
X-1783095Y826609D02*
X-2354523Y255180D01*
X-2354523Y255180D02*
X-1735476Y255180D01*
X3324819Y15357142D02*
X2848628Y15023809D01*
X3324819Y14785714D02*
X2324819Y14785714D01*
X2324819Y14785714D02*
X2324819Y15166666D01*
X2324819Y15166666D02*
X2372438Y15261904D01*
X2372438Y15261904D02*
X2420057Y15309523D01*
X2420057Y15309523D02*
X2515295Y15357142D01*
X2515295Y15357142D02*
X2658152Y15357142D01*
X2658152Y15357142D02*
X2753390Y15309523D01*
X2753390Y15309523D02*
X2801009Y15261904D01*
X2801009Y15261904D02*
X2848628Y15166666D01*
X2848628Y15166666D02*
X2848628Y14785714D01*
X3324819Y16309523D02*
X3324819Y15738095D01*
X3324819Y16023809D02*
X2324819Y16023809D01*
X2324819Y16023809D02*
X2467676Y15928571D01*
X2467676Y15928571D02*
X2562914Y15833333D01*
X2562914Y15833333D02*
X2610533Y15738095D01*
X2324819Y16928571D02*
X2324819Y17023809D01*
X2324819Y17023809D02*
X2372438Y17119047D01*
X2372438Y17119047D02*
X2420057Y17166666D01*
X2420057Y17166666D02*
X2515295Y17214285D01*
X2515295Y17214285D02*
X2705771Y17261904D01*
X2705771Y17261904D02*
X2943866Y17261904D01*
X2943866Y17261904D02*
X3134342Y17214285D01*
X3134342Y17214285D02*
X3229580Y17166666D01*
X3229580Y17166666D02*
X3277200Y17119047D01*
X3277200Y17119047D02*
X3324819Y17023809D01*
X3324819Y17023809D02*
X3324819Y16928571D01*
X3324819Y16928571D02*
X3277200Y16833333D01*
X3277200Y16833333D02*
X3229580Y16785714D01*
X3229580Y16785714D02*
X3134342Y16738095D01*
X3134342Y16738095D02*
X2943866Y16690476D01*
X2943866Y16690476D02*
X2705771Y16690476D01*
X2705771Y16690476D02*
X2515295Y16738095D01*
X2515295Y16738095D02*
X2420057Y16785714D01*
X2420057Y16785714D02*
X2372438Y16833333D01*
X2372438Y16833333D02*
X2324819Y16928571D01*
D11*
X4858237Y-17799318D02*
X4858237Y-16529318D01*
X6188714Y-17678365D02*
X6128238Y-17738842D01*
X6128238Y-17738842D02*
X5946809Y-17799318D01*
X5946809Y-17799318D02*
X5825857Y-17799318D01*
X5825857Y-17799318D02*
X5644428Y-17738842D01*
X5644428Y-17738842D02*
X5523476Y-17617889D01*
X5523476Y-17617889D02*
X5462999Y-17496937D01*
X5462999Y-17496937D02*
X5402523Y-17255032D01*
X5402523Y-17255032D02*
X5402523Y-17073603D01*
X5402523Y-17073603D02*
X5462999Y-16831699D01*
X5462999Y-16831699D02*
X5523476Y-16710746D01*
X5523476Y-16710746D02*
X5644428Y-16589794D01*
X5644428Y-16589794D02*
X5825857Y-16529318D01*
X5825857Y-16529318D02*
X5946809Y-16529318D01*
X5946809Y-16529318D02*
X6128238Y-16589794D01*
X6128238Y-16589794D02*
X6188714Y-16650270D01*
X6672523Y-16650270D02*
X6732999Y-16589794D01*
X6732999Y-16589794D02*
X6853952Y-16529318D01*
X6853952Y-16529318D02*
X7156333Y-16529318D01*
X7156333Y-16529318D02*
X7277285Y-16589794D01*
X7277285Y-16589794D02*
X7337761Y-16650270D01*
X7337761Y-16650270D02*
X7398238Y-16771222D01*
X7398238Y-16771222D02*
X7398238Y-16892175D01*
X7398238Y-16892175D02*
X7337761Y-17073603D01*
X7337761Y-17073603D02*
X6612047Y-17799318D01*
X6612047Y-17799318D02*
X7398238Y-17799318D01*
D10*
X10857142Y-4624819D02*
X10523809Y-4148628D01*
X10285714Y-4624819D02*
X10285714Y-3624819D01*
X10285714Y-3624819D02*
X10666666Y-3624819D01*
X10666666Y-3624819D02*
X10761904Y-3672438D01*
X10761904Y-3672438D02*
X10809523Y-3720057D01*
X10809523Y-3720057D02*
X10857142Y-3815295D01*
X10857142Y-3815295D02*
X10857142Y-3958152D01*
X10857142Y-3958152D02*
X10809523Y-4053390D01*
X10809523Y-4053390D02*
X10761904Y-4101009D01*
X10761904Y-4101009D02*
X10666666Y-4148628D01*
X10666666Y-4148628D02*
X10285714Y-4148628D01*
X11809523Y-4624819D02*
X11238095Y-4624819D01*
X11523809Y-4624819D02*
X11523809Y-3624819D01*
X11523809Y-3624819D02*
X11428571Y-3767676D01*
X11428571Y-3767676D02*
X11333333Y-3862914D01*
X11333333Y-3862914D02*
X11238095Y-3910533D01*
X12714285Y-3624819D02*
X12238095Y-3624819D01*
X12238095Y-3624819D02*
X12190476Y-4101009D01*
X12190476Y-4101009D02*
X12238095Y-4053390D01*
X12238095Y-4053390D02*
X12333333Y-4005771D01*
X12333333Y-4005771D02*
X12571428Y-4005771D01*
X12571428Y-4005771D02*
X12666666Y-4053390D01*
X12666666Y-4053390D02*
X12714285Y-4101009D01*
X12714285Y-4101009D02*
X12761904Y-4196247D01*
X12761904Y-4196247D02*
X12761904Y-4434342D01*
X12761904Y-4434342D02*
X12714285Y-4529580D01*
X12714285Y-4529580D02*
X12666666Y-4577200D01*
X12666666Y-4577200D02*
X12571428Y-4624819D01*
X12571428Y-4624819D02*
X12333333Y-4624819D01*
X12333333Y-4624819D02*
X12238095Y-4577200D01*
X12238095Y-4577200D02*
X12190476Y-4529580D01*
D11*
X1369047Y5654729D02*
X1248095Y5715205D01*
X1248095Y5715205D02*
X1127142Y5836158D01*
X1127142Y5836158D02*
X945714Y6017586D01*
X945714Y6017586D02*
X824761Y6078062D01*
X824761Y6078062D02*
X703809Y6078062D01*
X764285Y5775681D02*
X643333Y5836158D01*
X643333Y5836158D02*
X522380Y5957110D01*
X522380Y5957110D02*
X461904Y6199015D01*
X461904Y6199015D02*
X461904Y6622348D01*
X461904Y6622348D02*
X522380Y6864253D01*
X522380Y6864253D02*
X643333Y6985205D01*
X643333Y6985205D02*
X764285Y7045681D01*
X764285Y7045681D02*
X1006190Y7045681D01*
X1006190Y7045681D02*
X1127142Y6985205D01*
X1127142Y6985205D02*
X1248095Y6864253D01*
X1248095Y6864253D02*
X1308571Y6622348D01*
X1308571Y6622348D02*
X1308571Y6199015D01*
X1308571Y6199015D02*
X1248095Y5957110D01*
X1248095Y5957110D02*
X1127142Y5836158D01*
X1127142Y5836158D02*
X1006190Y5775681D01*
X1006190Y5775681D02*
X764285Y5775681D01*
X2518095Y5775681D02*
X1792380Y5775681D01*
X2155237Y5775681D02*
X2155237Y7045681D01*
X2155237Y7045681D02*
X2034285Y6864253D01*
X2034285Y6864253D02*
X1913333Y6743300D01*
X1913333Y6743300D02*
X1792380Y6682824D01*
D12*
%TO.C,J2*%
X600000Y20100000D02*
X6550000Y20100000D01*
X9150000Y20100000D02*
X12100000Y20100000D01*
X12100000Y20100000D02*
X12100000Y33800000D01*
X600000Y21350000D02*
X600000Y20100000D01*
D13*
X-1550000Y29900000D02*
X-1550000Y29900000D01*
X-1450000Y29900000D02*
X-1450000Y29900000D01*
D12*
X600000Y33800000D02*
X600000Y33150000D01*
X6550000Y33800000D02*
X600000Y33800000D01*
X12100000Y33800000D02*
X9150000Y33800000D01*
D13*
X-1450000Y29900000D02*
G75*
G03*
X-1550000Y29900000I-50000J0D01*
G01*
X-1550000Y29900000D02*
G75*
G03*
X-1450000Y29900000I50000J0D01*
G01*
D14*
%TO.C,D2*%
X-6085000Y20735000D02*
X-6085000Y19265000D01*
X-6085000Y19265000D02*
X-3800000Y19265000D01*
X-3800000Y20735000D02*
X-6085000Y20735000D01*
D12*
%TO.C,Y1*%
X-7000000Y1950000D02*
X-7000000Y1950000D01*
X-7000000Y1950000D02*
X-7000000Y1950000D01*
X-7000000Y1850000D02*
X-7000000Y1850000D01*
D13*
X-6450000Y-200000D02*
X-6450000Y-200000D01*
X-6450000Y-200000D02*
X-6450000Y-700000D01*
X-7950000Y-200000D02*
X-7950000Y-200000D01*
X-7950000Y-200000D02*
X-7950000Y-700000D01*
X-6450000Y-700000D02*
X-6450000Y-200000D01*
X-6450000Y-700000D02*
X-6450000Y-700000D01*
X-7950000Y-700000D02*
X-7950000Y-200000D01*
X-7950000Y-700000D02*
X-7950000Y-700000D01*
D12*
X-7000000Y1850000D02*
G75*
G03*
X-7000000Y1950000I0J50000D01*
G01*
X-7000000Y1950000D02*
G75*
G03*
X-7000000Y1850000I0J-50000D01*
G01*
X-7000000Y1950000D02*
G75*
G03*
X-7000000Y1850000I0J-50000D01*
G01*
D14*
%TO.C,R4*%
X-14812258Y-14077500D02*
X-14337742Y-14077500D01*
X-14812258Y-15122500D02*
X-14337742Y-15122500D01*
%TO.C,R16*%
X-3222258Y8142500D02*
X-2747742Y8142500D01*
X-3222258Y7097500D02*
X-2747742Y7097500D01*
%TO.C,C4*%
X1259420Y810000D02*
X1540580Y810000D01*
X1259420Y-210000D02*
X1540580Y-210000D01*
%TO.C,R13*%
X11137742Y-14577500D02*
X11612258Y-14577500D01*
X11137742Y-15622500D02*
X11612258Y-15622500D01*
%TO.C,R8*%
X11137742Y-16157500D02*
X11612258Y-16157500D01*
X11137742Y-17202500D02*
X11612258Y-17202500D01*
D12*
%TO.C,Q3*%
X-6650000Y-4365000D02*
X-5550000Y-4365000D01*
X-5200000Y-4450000D02*
X-4900000Y-4450000D01*
X-5200000Y-7350000D02*
X-5200000Y-4450000D01*
X-4900000Y-4450000D02*
X-4900000Y-7350000D01*
X-4900000Y-7350000D02*
X-5200000Y-7350000D01*
%TO.C,IC3*%
X-4390000Y11660000D02*
X-3190000Y11660000D01*
X-2840000Y11640000D02*
X-2240000Y11640000D01*
X-2840000Y8680000D02*
X-2840000Y11640000D01*
X-2240000Y11640000D02*
X-2240000Y8680000D01*
X-2240000Y8680000D02*
X-2840000Y8680000D01*
D14*
%TO.C,R2*%
X-8322500Y-6112258D02*
X-8322500Y-5637742D01*
X-7277500Y-6112258D02*
X-7277500Y-5637742D01*
D12*
%TO.C,Q2*%
X2430000Y12965000D02*
X3530000Y12965000D01*
X3880000Y12880000D02*
X4180000Y12880000D01*
X3880000Y9980000D02*
X3880000Y12880000D01*
X4180000Y12880000D02*
X4180000Y9980000D01*
X4180000Y9980000D02*
X3880000Y9980000D01*
D14*
%TO.C,C5*%
X-7110000Y-18414420D02*
X-7110000Y-18695580D01*
X-8130000Y-18414420D02*
X-8130000Y-18695580D01*
D13*
%TO.C,U1*%
X-5910000Y-15510000D02*
X-5910000Y-15510000D01*
X-5810000Y-15510000D02*
X-5810000Y-15510000D01*
X-5810000Y-15510000D02*
G75*
G03*
X-5910000Y-15510000I-50000J0D01*
G01*
X-5910000Y-15510000D02*
G75*
G03*
X-5810000Y-15510000I50000J0D01*
G01*
D14*
%TO.C,C1*%
X-6985580Y11940000D02*
X-6704420Y11940000D01*
X-6985580Y10920000D02*
X-6704420Y10920000D01*
%TO.C,C3*%
X-6985580Y6860000D02*
X-6704420Y6860000D01*
X-6985580Y5840000D02*
X-6704420Y5840000D01*
%TO.C,C6*%
X6815580Y-20110000D02*
X6534420Y-20110000D01*
X6815580Y-19090000D02*
X6534420Y-19090000D01*
%TO.C,R17*%
X-4112258Y31622500D02*
X-3637742Y31622500D01*
X-4112258Y30577500D02*
X-3637742Y30577500D01*
%TO.C,R18*%
X-1277500Y-21062742D02*
X-1277500Y-21537258D01*
X-2322500Y-21062742D02*
X-2322500Y-21537258D01*
%TO.C,JP1*%
X16800000Y-15225000D02*
X16800000Y-18025000D01*
X14800000Y-15225000D02*
X16800000Y-15225000D01*
X16800000Y-18025000D02*
X14800000Y-18025000D01*
X14800000Y-18025000D02*
X14800000Y-15225000D01*
D12*
%TO.C,Q4*%
X-1380000Y16775000D02*
X-280000Y16775000D01*
X70000Y16690000D02*
X370000Y16690000D01*
X70000Y13790000D02*
X70000Y16690000D01*
X370000Y16690000D02*
X370000Y13790000D01*
X370000Y13790000D02*
X70000Y13790000D01*
D14*
%TO.C,D1*%
X-6082500Y24865000D02*
X-6082500Y23395000D01*
X-6082500Y23395000D02*
X-3797500Y23395000D01*
X-3797500Y24865000D02*
X-6082500Y24865000D01*
%TO.C,R14*%
X11137742Y-17677500D02*
X11612258Y-17677500D01*
X11137742Y-18722500D02*
X11612258Y-18722500D01*
%TO.C,R6*%
X-14377500Y-17287742D02*
X-14377500Y-17762258D01*
X-15422500Y-17287742D02*
X-15422500Y-17762258D01*
D13*
%TO.C,S2*%
X-13770000Y11710000D02*
X-13770000Y11710000D01*
X-13770000Y11810000D02*
X-13770000Y11810000D01*
X-15770000Y13510000D02*
X-15770000Y19510000D01*
X-14870000Y13510000D02*
X-15770000Y13510000D01*
X-13070000Y13510000D02*
X-12170000Y13510000D01*
X-12170000Y13510000D02*
X-12170000Y19510000D01*
X-15770000Y19510000D02*
X-14870000Y19510000D01*
X-12170000Y19510000D02*
X-13070000Y19510000D01*
X-13770000Y11810000D02*
G75*
G03*
X-13770000Y11710000I0J-50000D01*
G01*
X-13770000Y11710000D02*
G75*
G03*
X-13770000Y11810000I0J50000D01*
G01*
D14*
%TO.C,R7*%
X-4112258Y33522500D02*
X-3637742Y33522500D01*
X-4112258Y32477500D02*
X-3637742Y32477500D01*
%TO.C,R9*%
X6777500Y15737742D02*
X6777500Y16212258D01*
X7822500Y15737742D02*
X7822500Y16212258D01*
%TO.C,R3*%
X-15422500Y-11212258D02*
X-15422500Y-10737742D01*
X-14377500Y-11212258D02*
X-14377500Y-10737742D01*
%TO.C,J3*%
X14130000Y16000000D02*
X15240000Y16000000D01*
X14130000Y15240000D02*
X14130000Y16000000D01*
X14130000Y14480000D02*
X14130000Y4385000D01*
X14130000Y14480000D02*
X14676529Y14480000D01*
X14130000Y4385000D02*
X14932470Y4385000D01*
X15547530Y4385000D02*
X16350000Y4385000D01*
X15803471Y14480000D02*
X16350000Y14480000D01*
X16350000Y14480000D02*
X16350000Y4385000D01*
%TO.C,R1*%
X5337742Y8322500D02*
X5812258Y8322500D01*
X5337742Y7277500D02*
X5812258Y7277500D01*
%TO.C,R5*%
X-13587742Y-22622500D02*
X-14062258Y-22622500D01*
X-13587742Y-21577500D02*
X-14062258Y-21577500D01*
%TO.C,R20*%
X2662742Y-16677500D02*
X3137258Y-16677500D01*
X2662742Y-17722500D02*
X3137258Y-17722500D01*
%TO.C,R12*%
X-7722500Y-14837258D02*
X-7722500Y-14362742D01*
X-6677500Y-14837258D02*
X-6677500Y-14362742D01*
%TO.C,D3*%
X10650000Y-10210000D02*
X12050000Y-10210000D01*
X12050000Y-7890000D02*
X10150000Y-7890000D01*
%TO.C,U2*%
X-3845000Y-2950000D02*
X-1245000Y-2950000D01*
X-2545000Y-130000D02*
X-1245000Y-130000D01*
%TO.C,R10*%
X3777500Y15762742D02*
X3777500Y16237258D01*
X4822500Y15762742D02*
X4822500Y16237258D01*
D12*
%TO.C,IC2*%
X5155000Y-16480000D02*
X7755000Y-16480000D01*
X7755000Y-18080000D02*
X5155000Y-18080000D01*
X4662970Y-16764000D02*
G75*
G03*
X4662970Y-16764000I-18970J0D01*
G01*
D14*
%TO.C,R15*%
X11262742Y-5077500D02*
X11737258Y-5077500D01*
X11262742Y-6122500D02*
X11737258Y-6122500D01*
D12*
%TO.C,Q1*%
X-110000Y7885000D02*
X990000Y7885000D01*
X1340000Y7800000D02*
X1640000Y7800000D01*
X1340000Y4900000D02*
X1340000Y7800000D01*
X1640000Y7800000D02*
X1640000Y4900000D01*
X1640000Y4900000D02*
X1340000Y4900000D01*
%TD*%
M02*
