M48
; DRILL file {KiCad 7.0.8-7.0.8~ubuntu20.04.1} date 2023년 10월 05일 (목) 오후 05시 37분 35초
; FORMAT={-:-/ absolute / inch / decimal}
; #@! TF.CreationDate,2023-10-05T17:37:35+09:00
; #@! TF.GenerationSoftware,Kicad,Pcbnew,7.0.8-7.0.8~ubuntu20.04.1
; #@! TF.FileFunction,Plated,1,2,PTH
FMAT,2
INCH
; #@! TA.AperFunction,Plated,PTH,ViaDrill
T1C0.0157
; #@! TA.AperFunction,Plated,PTH,ComponentDrill
T2C0.0256
; #@! TA.AperFunction,Plated,PTH,ComponentDrill
T3C0.0866
%
G90
G05
T1
X-0.6Y-0.1024
X-0.582Y-0.5309
X-0.5318Y0.8698
X-0.5259Y0.0768
X-0.4702Y-0.8557
X-0.2584Y-0.4377
X-0.2041Y-0.2381
X-0.2036Y-0.5757
X-0.181Y0.541
X-0.1199Y0.2085
X-0.0225Y-0.437
X0.0136Y-0.3348
X0.0402Y0.3355
X0.0472Y1.0024
X0.0636Y-0.2286
X0.1021Y0.759
X0.1035Y0.7989
X0.2018Y-0.4818
X0.2411Y-0.312
X0.2887Y-0.3135
X0.3021Y0.7012
X0.3193Y-0.217
X0.4708Y-0.7857
T2
X0.6Y0.6
X0.6Y0.55
X0.6Y0.5
X0.6Y0.45
X0.6Y0.4
X0.6Y0.35
X0.6Y0.3
X0.6Y0.25
X0.6Y0.2
T3
X-0.5866Y1.2559
X-0.5866Y-1.2559
X0.5906Y-1.2441
X0.5945Y1.2638
T0
M30
