%TF.GenerationSoftware,KiCad,Pcbnew,7.0.8-7.0.8~ubuntu20.04.1*%
%TF.CreationDate,2023-10-05T17:37:43+09:00*%
%TF.ProjectId,v0_2,76305f32-2e6b-4696-9361-645f70636258,rev?*%
%TF.SameCoordinates,Original*%
%TF.FileFunction,Legend,Bot*%
%TF.FilePolarity,Positive*%
%FSLAX46Y46*%
G04 Gerber Fmt 4.6, Leading zero omitted, Abs format (unit mm)*
G04 Created by KiCad (PCBNEW 7.0.8-7.0.8~ubuntu20.04.1) date 2023-10-05 17:37:43*
%MOMM*%
%LPD*%
G01*
G04 APERTURE LIST*
%ADD10C,0.254000*%
%ADD11C,0.100000*%
%ADD12C,0.200000*%
G04 APERTURE END LIST*
D10*
X-14726158Y-6792380D02*
X-14665681Y-6973809D01*
X-14665681Y-6973809D02*
X-14665681Y-7276190D01*
X-14665681Y-7276190D02*
X-14726158Y-7397142D01*
X-14726158Y-7397142D02*
X-14786634Y-7457618D01*
X-14786634Y-7457618D02*
X-14907586Y-7518095D01*
X-14907586Y-7518095D02*
X-15028538Y-7518095D01*
X-15028538Y-7518095D02*
X-15149491Y-7457618D01*
X-15149491Y-7457618D02*
X-15209967Y-7397142D01*
X-15209967Y-7397142D02*
X-15270443Y-7276190D01*
X-15270443Y-7276190D02*
X-15330919Y-7034285D01*
X-15330919Y-7034285D02*
X-15391396Y-6913333D01*
X-15391396Y-6913333D02*
X-15451872Y-6852856D01*
X-15451872Y-6852856D02*
X-15572824Y-6792380D01*
X-15572824Y-6792380D02*
X-15693777Y-6792380D01*
X-15693777Y-6792380D02*
X-15814729Y-6852856D01*
X-15814729Y-6852856D02*
X-15875205Y-6913333D01*
X-15875205Y-6913333D02*
X-15935681Y-7034285D01*
X-15935681Y-7034285D02*
X-15935681Y-7336666D01*
X-15935681Y-7336666D02*
X-15875205Y-7518095D01*
X-14665681Y-8727619D02*
X-14665681Y-8001904D01*
X-14665681Y-8364761D02*
X-15935681Y-8364761D01*
X-15935681Y-8364761D02*
X-15754253Y-8243809D01*
X-15754253Y-8243809D02*
X-15633300Y-8122857D01*
X-15633300Y-8122857D02*
X-15572824Y-8001904D01*
X1239762Y-8574318D02*
X1239762Y-7304318D01*
X-90714Y-8453365D02*
X-30238Y-8513842D01*
X-30238Y-8513842D02*
X151190Y-8574318D01*
X151190Y-8574318D02*
X272142Y-8574318D01*
X272142Y-8574318D02*
X453571Y-8513842D01*
X453571Y-8513842D02*
X574523Y-8392889D01*
X574523Y-8392889D02*
X635000Y-8271937D01*
X635000Y-8271937D02*
X695476Y-8030032D01*
X695476Y-8030032D02*
X695476Y-7848603D01*
X695476Y-7848603D02*
X635000Y-7606699D01*
X635000Y-7606699D02*
X574523Y-7485746D01*
X574523Y-7485746D02*
X453571Y-7364794D01*
X453571Y-7364794D02*
X272142Y-7304318D01*
X272142Y-7304318D02*
X151190Y-7304318D01*
X151190Y-7304318D02*
X-30238Y-7364794D01*
X-30238Y-7364794D02*
X-90714Y-7425270D01*
X-1300238Y-8574318D02*
X-574523Y-8574318D01*
X-937380Y-8574318D02*
X-937380Y-7304318D01*
X-937380Y-7304318D02*
X-816428Y-7485746D01*
X-816428Y-7485746D02*
X-695476Y-7606699D01*
X-695476Y-7606699D02*
X-574523Y-7667175D01*
X-9400681Y24553332D02*
X-8493538Y24553332D01*
X-8493538Y24553332D02*
X-8312110Y24613809D01*
X-8312110Y24613809D02*
X-8191158Y24734761D01*
X-8191158Y24734761D02*
X-8130681Y24916190D01*
X-8130681Y24916190D02*
X-8130681Y25037142D01*
X-8130681Y23283332D02*
X-8130681Y24009047D01*
X-8130681Y23646190D02*
X-9400681Y23646190D01*
X-9400681Y23646190D02*
X-9219253Y23767142D01*
X-9219253Y23767142D02*
X-9098300Y23888094D01*
X-9098300Y23888094D02*
X-9037824Y24009047D01*
D11*
%TO.C,S1*%
X-15440000Y-12310000D02*
X-15440000Y-12310000D01*
X-15440000Y-12210000D02*
X-15440000Y-12210000D01*
X-17040000Y-10510000D02*
X-17040000Y-4510000D01*
X-16140000Y-10510000D02*
X-17040000Y-10510000D01*
X-14340000Y-10510000D02*
X-13440000Y-10510000D01*
X-13440000Y-10510000D02*
X-13440000Y-4510000D01*
X-17040000Y-4510000D02*
X-16140000Y-4510000D01*
X-13440000Y-4510000D02*
X-14340000Y-4510000D01*
X-15440000Y-12210000D02*
G75*
G03*
X-15440000Y-12310000I0J-50000D01*
G01*
X-15440000Y-12310000D02*
G75*
G03*
X-15440000Y-12210000I0J50000D01*
G01*
D12*
%TO.C,IC1*%
X-11900000Y-32130000D02*
X-11900000Y-32130000D01*
X-11900000Y-32130000D02*
X-11900000Y-32130000D01*
X-11800000Y-32130000D02*
X-11800000Y-32130000D01*
X-10500000Y17500000D02*
X10500000Y17500000D01*
X-10500000Y17200000D02*
X-10500000Y17500000D01*
X-10500000Y-33500000D02*
X-10500000Y-33200000D01*
X10500000Y17500000D02*
X10500000Y17200000D01*
X10500000Y-33200000D02*
X10500000Y-33500000D01*
X10500000Y-33500000D02*
X-10500000Y-33500000D01*
X-11800000Y-32130000D02*
G75*
G03*
X-11900000Y-32130000I-50000J0D01*
G01*
X-11800000Y-32130000D02*
G75*
G03*
X-11900000Y-32130000I-50000J0D01*
G01*
X-11900000Y-32130000D02*
G75*
G03*
X-11800000Y-32130000I50000J0D01*
G01*
D11*
%TO.C,J1*%
X-11980000Y20180000D02*
X-7780000Y20180000D01*
X-11980000Y22130000D02*
X-11980000Y20180000D01*
X-13380000Y25130000D02*
X-13380000Y25130000D01*
X-13380000Y25230000D02*
X-13380000Y25230000D01*
X-4380000Y26330000D02*
X-4380000Y22130000D01*
X-11980000Y28080000D02*
X-11980000Y26130000D01*
X-7780000Y28080000D02*
X-11980000Y28080000D01*
X-13380000Y25230000D02*
G75*
G03*
X-13380000Y25130000I0J-50000D01*
G01*
X-13380000Y25130000D02*
G75*
G03*
X-13380000Y25230000I0J50000D01*
G01*
%TD*%
M02*
