%TF.GenerationSoftware,KiCad,Pcbnew,7.0.8-7.0.8~ubuntu20.04.1*%
%TF.CreationDate,2023-10-05T17:37:43+09:00*%
%TF.ProjectId,v0_2,76305f32-2e6b-4696-9361-645f70636258,rev?*%
%TF.SameCoordinates,Original*%
%TF.FileFunction,Soldermask,Top*%
%TF.FilePolarity,Negative*%
%FSLAX46Y46*%
G04 Gerber Fmt 4.6, Leading zero omitted, Abs format (unit mm)*
G04 Created by KiCad (PCBNEW 7.0.8-7.0.8~ubuntu20.04.1) date 2023-10-05 17:37:43*
%MOMM*%
%LPD*%
G01*
G04 APERTURE LIST*
G04 Aperture macros list*
%AMRoundRect*
0 Rectangle with rounded corners*
0 $1 Rounding radius*
0 $2 $3 $4 $5 $6 $7 $8 $9 X,Y pos of 4 corners*
0 Add a 4 corners polygon primitive as box body*
4,1,4,$2,$3,$4,$5,$6,$7,$8,$9,$2,$3,0*
0 Add four circle primitives for the rounded corners*
1,1,$1+$1,$2,$3*
1,1,$1+$1,$4,$5*
1,1,$1+$1,$6,$7*
1,1,$1+$1,$8,$9*
0 Add four rect primitives between the rounded corners*
20,1,$1+$1,$2,$3,$4,$5,0*
20,1,$1+$1,$4,$5,$6,$7,0*
20,1,$1+$1,$6,$7,$8,$9,0*
20,1,$1+$1,$8,$9,$2,$3,0*%
%AMFreePoly0*
4,1,6,1.000000,0.000000,0.500000,-0.750000,-0.500000,-0.750000,-0.500000,0.750000,0.500000,0.750000,1.000000,0.000000,1.000000,0.000000,$1*%
%AMFreePoly1*
4,1,6,0.500000,-0.750000,-0.650000,-0.750000,-0.150000,0.000000,-0.650000,0.750000,0.500000,0.750000,0.500000,-0.750000,0.500000,-0.750000,$1*%
G04 Aperture macros list end*
%ADD10C,2.600000*%
%ADD11C,4.400000*%
%ADD12C,1.600000*%
%ADD13R,1.500000X0.800000*%
%ADD14R,2.000000X1.500000*%
%ADD15RoundRect,0.218750X-0.218750X-0.256250X0.218750X-0.256250X0.218750X0.256250X-0.218750X0.256250X0*%
%ADD16R,1.800000X1.000000*%
%ADD17RoundRect,0.200000X-0.200000X-0.275000X0.200000X-0.275000X0.200000X0.275000X-0.200000X0.275000X0*%
%ADD18RoundRect,0.225000X-0.225000X-0.250000X0.225000X-0.250000X0.225000X0.250000X-0.225000X0.250000X0*%
%ADD19R,1.100000X0.650000*%
%ADD20R,1.200000X0.600000*%
%ADD21RoundRect,0.200000X0.275000X-0.200000X0.275000X0.200000X-0.275000X0.200000X-0.275000X-0.200000X0*%
%ADD22RoundRect,0.225000X-0.250000X0.225000X-0.250000X-0.225000X0.250000X-0.225000X0.250000X0.225000X0*%
%ADD23R,0.800000X0.500000*%
%ADD24RoundRect,0.225000X0.225000X0.250000X-0.225000X0.250000X-0.225000X-0.250000X0.225000X-0.250000X0*%
%ADD25RoundRect,0.200000X-0.275000X0.200000X-0.275000X-0.200000X0.275000X-0.200000X0.275000X0.200000X0*%
%ADD26FreePoly0,270.000000*%
%ADD27FreePoly1,270.000000*%
%ADD28R,1.000000X1.200000*%
%ADD29R,1.000000X1.000000*%
%ADD30O,1.000000X1.000000*%
%ADD31RoundRect,0.200000X0.200000X0.275000X-0.200000X0.275000X-0.200000X-0.275000X0.200000X-0.275000X0*%
%ADD32R,0.650000X0.400000*%
%ADD33RoundRect,0.062500X-0.337500X-0.062500X0.337500X-0.062500X0.337500X0.062500X-0.337500X0.062500X0*%
%ADD34R,1.300000X2.200000*%
%ADD35R,0.550000X0.250000*%
G04 APERTURE END LIST*
D10*
%TO.C,H4*%
X15000000Y-31600000D03*
D11*
X15000000Y-31600000D03*
%TD*%
D12*
%TO.C,J2*%
X3000000Y21950000D03*
X3000000Y31950000D03*
D13*
X-200000Y29900000D03*
X-200000Y28800000D03*
X-200000Y27700000D03*
X-200000Y26600000D03*
X-200000Y25500000D03*
X-200000Y24400000D03*
X-200000Y23300000D03*
X-200000Y22200000D03*
X-200000Y32350000D03*
X-200000Y31000000D03*
D14*
X7900000Y34050000D03*
X7900000Y19850000D03*
%TD*%
D15*
%TO.C,D2*%
X-5387500Y20000000D03*
X-3812500Y20000000D03*
%TD*%
D16*
%TO.C,Y1*%
X-7200000Y800000D03*
X-7200000Y-1700000D03*
%TD*%
D17*
%TO.C,R4*%
X-15400000Y-14600000D03*
X-13750000Y-14600000D03*
%TD*%
%TO.C,R16*%
X-3810000Y7620000D03*
X-2160000Y7620000D03*
%TD*%
D18*
%TO.C,C4*%
X625000Y300000D03*
X2175000Y300000D03*
%TD*%
D10*
%TO.C,H1*%
X-14900000Y31900000D03*
D11*
X-14900000Y31900000D03*
%TD*%
D17*
%TO.C,R13*%
X10550000Y-15100000D03*
X12200000Y-15100000D03*
%TD*%
%TO.C,R8*%
X10550000Y-16680000D03*
X12200000Y-16680000D03*
%TD*%
D19*
%TO.C,Q3*%
X-6100000Y-4940000D03*
X-6100000Y-6860000D03*
X-4000000Y-5900000D03*
%TD*%
D20*
%TO.C,IC3*%
X-3790000Y11110000D03*
X-3790000Y9210000D03*
X-1290000Y10160000D03*
%TD*%
D21*
%TO.C,R2*%
X-7800000Y-6700000D03*
X-7800000Y-5050000D03*
%TD*%
D19*
%TO.C,Q2*%
X2980000Y12390000D03*
X2980000Y10470000D03*
X5080000Y11430000D03*
%TD*%
D22*
%TO.C,C5*%
X-7620000Y-17780000D03*
X-7620000Y-19330000D03*
%TD*%
D23*
%TO.C,U1*%
X-4810000Y-15510000D03*
X-4810000Y-16510000D03*
X-4810000Y-17510000D03*
X-2810000Y-17510000D03*
X-2810000Y-16510000D03*
X-2810000Y-15510000D03*
%TD*%
D18*
%TO.C,C1*%
X-7620000Y11430000D03*
X-6070000Y11430000D03*
%TD*%
%TO.C,C3*%
X-7620000Y6350000D03*
X-6070000Y6350000D03*
%TD*%
D10*
%TO.C,H2*%
X15100000Y32100000D03*
D11*
X15100000Y32100000D03*
%TD*%
D24*
%TO.C,C6*%
X7450000Y-19600000D03*
X5900000Y-19600000D03*
%TD*%
D17*
%TO.C,R17*%
X-4700000Y31100000D03*
X-3050000Y31100000D03*
%TD*%
D25*
%TO.C,R18*%
X-1800000Y-20475000D03*
X-1800000Y-22125000D03*
%TD*%
D26*
%TO.C,JP1*%
X15800000Y-15900000D03*
D27*
X15800000Y-17350000D03*
%TD*%
D19*
%TO.C,Q4*%
X-830000Y16200000D03*
X-830000Y14280000D03*
X1270000Y15240000D03*
%TD*%
D15*
%TO.C,D1*%
X-5385000Y24130000D03*
X-3810000Y24130000D03*
%TD*%
D17*
%TO.C,R14*%
X10550000Y-18200000D03*
X12200000Y-18200000D03*
%TD*%
D10*
%TO.C,H3*%
X-14900000Y-31900000D03*
D11*
X-14900000Y-31900000D03*
%TD*%
D25*
%TO.C,R6*%
X-14900000Y-16700000D03*
X-14900000Y-18350000D03*
%TD*%
D28*
%TO.C,S2*%
X-13970000Y12810000D03*
X-13970000Y20210000D03*
%TD*%
D17*
%TO.C,R7*%
X-4700000Y33000000D03*
X-3050000Y33000000D03*
%TD*%
D21*
%TO.C,R9*%
X7300000Y15150000D03*
X7300000Y16800000D03*
%TD*%
%TO.C,R3*%
X-14900000Y-11800000D03*
X-14900000Y-10150000D03*
%TD*%
D29*
%TO.C,J3*%
X15240000Y15240000D03*
D30*
X15240000Y13970000D03*
X15240000Y12700000D03*
X15240000Y11430000D03*
X15240000Y10160000D03*
X15240000Y8890000D03*
X15240000Y7620000D03*
X15240000Y6350000D03*
X15240000Y5080000D03*
%TD*%
D17*
%TO.C,R1*%
X4750000Y7800000D03*
X6400000Y7800000D03*
%TD*%
D31*
%TO.C,R5*%
X-13000000Y-22100000D03*
X-14650000Y-22100000D03*
%TD*%
D17*
%TO.C,R20*%
X2075000Y-17200000D03*
X3725000Y-17200000D03*
%TD*%
D21*
%TO.C,R12*%
X-7200000Y-15425000D03*
X-7200000Y-13775000D03*
%TD*%
D32*
%TO.C,D3*%
X10400000Y-8400000D03*
X10400000Y-9050000D03*
X10400000Y-9700000D03*
X12300000Y-9700000D03*
X12300000Y-9050000D03*
X12300000Y-8400000D03*
%TD*%
D33*
%TO.C,U2*%
X-3820000Y-540000D03*
X-3820000Y-1040000D03*
X-3820000Y-1540000D03*
X-3820000Y-2040000D03*
X-3820000Y-2540000D03*
X-1270000Y-2540000D03*
X-1270000Y-2040000D03*
X-1270000Y-1540000D03*
X-1270000Y-1040000D03*
X-1270000Y-540000D03*
D34*
X-2545000Y-1540000D03*
%TD*%
D21*
%TO.C,R10*%
X4300000Y15175000D03*
X4300000Y16825000D03*
%TD*%
D35*
%TO.C,IC2*%
X5080000Y-16780000D03*
X5080000Y-17280000D03*
X5080000Y-17780000D03*
X7830000Y-17780000D03*
X7830000Y-17280000D03*
X7830000Y-16780000D03*
%TD*%
D17*
%TO.C,R15*%
X10675000Y-5600000D03*
X12325000Y-5600000D03*
%TD*%
D19*
%TO.C,Q1*%
X440000Y7310000D03*
X440000Y5390000D03*
X2540000Y6350000D03*
%TD*%
M02*
