%TF.GenerationSoftware,KiCad,Pcbnew,7.0.8-7.0.8~ubuntu20.04.1*%
%TF.CreationDate,2023-10-05T17:37:43+09:00*%
%TF.ProjectId,v0_2,76305f32-2e6b-4696-9361-645f70636258,rev?*%
%TF.SameCoordinates,Original*%
%TF.FileFunction,Soldermask,Bot*%
%TF.FilePolarity,Negative*%
%FSLAX46Y46*%
G04 Gerber Fmt 4.6, Leading zero omitted, Abs format (unit mm)*
G04 Created by KiCad (PCBNEW 7.0.8-7.0.8~ubuntu20.04.1) date 2023-10-05 17:37:43*
%MOMM*%
%LPD*%
G01*
G04 APERTURE LIST*
%ADD10C,2.600000*%
%ADD11C,4.400000*%
%ADD12C,1.600000*%
%ADD13R,1.000000X1.000000*%
%ADD14O,1.000000X1.000000*%
%ADD15R,1.000000X1.200000*%
%ADD16O,3.200000X1.600000*%
%ADD17R,3.200000X1.600000*%
%ADD18R,3.500000X1.000000*%
%ADD19R,3.400000X1.500000*%
G04 APERTURE END LIST*
D10*
%TO.C,H4*%
X15000000Y-31600000D03*
D11*
X15000000Y-31600000D03*
%TD*%
D12*
%TO.C,J2*%
X3000000Y21950000D03*
X3000000Y31950000D03*
%TD*%
D10*
%TO.C,H1*%
X-14900000Y31900000D03*
D11*
X-14900000Y31900000D03*
%TD*%
D10*
%TO.C,H2*%
X15100000Y32100000D03*
D11*
X15100000Y32100000D03*
%TD*%
D10*
%TO.C,H3*%
X-14900000Y-31900000D03*
D11*
X-14900000Y-31900000D03*
%TD*%
D13*
%TO.C,J3*%
X15240000Y15240000D03*
D14*
X15240000Y13970000D03*
X15240000Y12700000D03*
X15240000Y11430000D03*
X15240000Y10160000D03*
X15240000Y8890000D03*
X15240000Y7620000D03*
X15240000Y6350000D03*
X15240000Y5080000D03*
%TD*%
D15*
%TO.C,S1*%
X-15240000Y-11210000D03*
X-15240000Y-3810000D03*
%TD*%
D16*
%TO.C,IC1*%
X-9690000Y-32130000D03*
X-9690000Y-29590000D03*
D17*
X-9690000Y-27050000D03*
D16*
X-9690000Y-24510000D03*
X-9690000Y-21970000D03*
X-9690000Y-19430000D03*
X-9690000Y-16890000D03*
D17*
X-9690000Y-14350000D03*
D16*
X-9690000Y-11810000D03*
X-9690000Y-9270000D03*
X-9690000Y-6730000D03*
X-9690000Y-4190000D03*
D17*
X-9690000Y-1650000D03*
D16*
X-9690000Y890000D03*
X-9690000Y3430000D03*
X-9690000Y5970000D03*
X-9690000Y8510000D03*
D17*
X-9690000Y11050000D03*
D16*
X-9690000Y13590000D03*
X-9690000Y16130000D03*
X9690000Y16130000D03*
X9690000Y13590000D03*
D17*
X9690000Y11050000D03*
D16*
X9690000Y8510000D03*
X9690000Y5970000D03*
X9690000Y3430000D03*
X9690000Y890000D03*
D17*
X9690000Y-1650000D03*
D16*
X9690000Y-4190000D03*
X9690000Y-6730000D03*
X9690000Y-9270000D03*
X9690000Y-11810000D03*
D17*
X9690000Y-14350000D03*
D16*
X9690000Y-16890000D03*
X9690000Y-19430000D03*
X9690000Y-21970000D03*
X9690000Y-24510000D03*
D17*
X9690000Y-27050000D03*
D16*
X9690000Y-29590000D03*
X9690000Y-32130000D03*
%TD*%
D18*
%TO.C,J1*%
X-11430000Y25130000D03*
X-11430000Y23130000D03*
D19*
X-5680000Y27480000D03*
X-5680000Y20780000D03*
%TD*%
M02*
